ISO-10303-21;
HEADER;
FILE_DESCRIPTION (( 'STEP AP214' ),
    '1' );
FILE_NAME('Upper_Electronics_Tray.step','2026-09-10T00:00:00',('RIVERDOG'),(''),'SOLIDWORKS STEP exporter','SOLIDWORKS','');
FILE_SCHEMA (( 'AUTOMOTIVE_DESIGN' ));
ENDSEC;

DATA;
#1 = DIRECTION ( 'NONE',  ( 0.000000000000000000, 0.000000000000000000, 1.000000000000000000 ) ) ;
#2 = ORIENTED_EDGE ( 'NONE', *, *, #730, .T. ) ;
#3 = VERTEX_POINT ( 'NONE', #204 ) ;
#4 = DIRECTION ( 'NONE',  ( -0.000000000000000000, 1.000000000000000000, -0.000000000000000000 ) ) ;
#5 = ORIENTED_EDGE ( 'NONE', *, *, #835, .F. ) ;
#6 = AXIS2_PLACEMENT_3D ( 'NONE', #674, #475, #878 ) ;
#7 = AXIS2_PLACEMENT_3D ( 'NONE', #880, #970, #1308 ) ;
#8 = CIRCLE ( 'NONE', #230, 1.286713773507058844 ) ;
#9 = ADVANCED_FACE ( 'NONE', ( #360, #1056 ), #276, .F. ) ;
#10 = DIRECTION ( 'NONE',  ( 1.000000000000000000, 0.000000000000000000, -0.000000000000000000 ) ) ;
#11 = VECTOR ( 'NONE', #343, 1000.000000000000000 ) ;
#12 = VERTEX_POINT ( 'NONE', #325 ) ;
#13 = LINE ( 'NONE', #1017, #347 ) ;
#14 = ORIENTED_EDGE ( 'NONE', *, *, #1143, .F. ) ;
#15 = DIRECTION ( 'NONE',  ( -0.000000000000000000, -0.000000000000000000, -1.000000000000000000 ) ) ;
#16 = EDGE_CURVE ( 'NONE', #537, #574, #1290, .T. ) ;
#17 = DIRECTION ( 'NONE',  ( 1.577021341797097560E-16, -1.000000000000000000, 0.000000000000000000 ) ) ;
#18 = FACE_OUTER_BOUND ( 'NONE', #1188, .T. ) ;
#19 = FACE_OUTER_BOUND ( 'NONE', #799, .T. ) ;
#20 = ORIENTED_EDGE ( 'NONE', *, *, #393, .F. ) ;
#21 = CARTESIAN_POINT ( 'NONE',  ( 18.18146149428434555, 28.76206057038385566, 5.000000000000000888 ) ) ;
#22 = EDGE_LOOP ( 'NONE', ( #588 ) ) ;
#23 = DIRECTION ( 'NONE',  ( 0.000000000000000000, 0.000000000000000000, -1.000000000000000000 ) ) ;
#24 = ADVANCED_FACE ( 'NONE', ( #282 ), #974, .T. ) ;
#25 = ORIENTED_EDGE ( 'NONE', *, *, #854, .F. ) ;
#26 = FACE_OUTER_BOUND ( 'NONE', #1099, .T. ) ;
#27 = AXIS2_PLACEMENT_3D ( 'NONE', #918, #116, #306 ) ;
#28 = AXIS2_PLACEMENT_3D ( 'NONE', #334, #15, #426 ) ;
#29 = CARTESIAN_POINT ( 'NONE',  ( 5.213676621836000002, 86.11189042415848860, 5.000000000000000000 ) ) ;
#30 = CIRCLE ( 'NONE', #1280, 2.500000000000015987 ) ;
#31 = APPLICATION_CONTEXT ( 'automotive_design' ) ;
#32 = EDGE_CURVE ( 'NONE', #673, #837, #258, .T. ) ;
#33 = ORIENTED_EDGE ( 'NONE', *, *, #1054, .F. ) ;
#34 = CARTESIAN_POINT ( 'NONE',  ( 0.000000000000000000, 0.000000000000000000, 5.000000000000000000 ) ) ;
#35 = LINE ( 'NONE', #1156, #564 ) ;
#36 = FACE_OUTER_BOUND ( 'NONE', #660, .T. ) ;
#37 = VERTEX_POINT ( 'NONE', #288 ) ;
#38 = CARTESIAN_POINT ( 'NONE',  ( 26.08472036240130265, 88.51409891124708906, 12.00000000000000000 ) ) ;
#39 = FACE_OUTER_BOUND ( 'NONE', #437, .T. ) ;
#40 = DIRECTION ( 'NONE',  ( -1.000000000000000000, 0.000000000000000000, 0.000000000000000000 ) ) ;
#41 = ORIENTED_EDGE ( 'NONE', *, *, #724, .F. ) ;
#42 = LINE ( 'NONE', #49, #845 ) ;
#43 = EDGE_CURVE ( 'NONE', #1276, #1276, #840, .T. ) ;
#44 = AXIS2_PLACEMENT_3D ( 'NONE', #876, #1274, #139 ) ;
#45 = EDGE_LOOP ( 'NONE', ( #1192, #1033, #1121, #488 ) ) ;
#46 = VECTOR ( 'NONE', #685, 1000.000000000000000 ) ;
#47 = DIRECTION ( 'NONE',  ( 1.000000000000000000, 0.000000000000000000, 0.000000000000000000 ) ) ;
#48 = AXIS2_PLACEMENT_3D ( 'NONE', #1256, #1145, #329 ) ;
#49 = CARTESIAN_POINT ( 'NONE',  ( 63.58472036240128489, 51.01409891124709617, 2.000000000000000000 ) ) ;
#50 = DIRECTION ( 'NONE',  ( 0.000000000000000000, 0.000000000000000000, 1.000000000000000000 ) ) ;
#51 = EDGE_CURVE ( 'NONE', #784, #784, #881, .T. ) ;
#52 = VERTEX_POINT ( 'NONE', #953 ) ;
#53 = CARTESIAN_POINT ( 'NONE',  ( 5.084720362404981486, 8.571053861803907381, 7.000000000000000000 ) ) ;
#54 = PLANE ( 'NONE',  #441 ) ;
#55 = DIRECTION ( 'NONE',  ( -0.000000000000000000, -0.000000000000000000, -1.000000000000000000 ) ) ;
#56 = LINE ( 'NONE', #841, #317 ) ;
#57 = ORIENTED_EDGE ( 'NONE', *, *, #444, .F. ) ;
#58 = CARTESIAN_POINT ( 'NONE',  ( 28.58472036240130620, 86.01409891124708906, 2.000000000000000000 ) ) ;
#59 = EDGE_CURVE ( 'NONE', #554, #574, #864, .T. ) ;
#60 = CARTESIAN_POINT ( 'NONE',  ( 18.18146149428434555, 28.76206057038385566, 17.00000000000000000 ) ) ;
#61 = FACE_OUTER_BOUND ( 'NONE', #621, .T. ) ;
#62 = EDGE_LOOP ( 'NONE', ( #1160 ) ) ;
#63 = DIRECTION ( 'NONE',  ( -0.000000000000000000, -0.000000000000000000, -1.000000000000000000 ) ) ;
#64 = ORIENTED_EDGE ( 'NONE', *, *, #872, .F. ) ;
#65 = CIRCLE ( 'NONE', #542, 3.750000000000000888 ) ;
#66 = PLANE ( 'NONE',  #6 ) ;
#67 = CIRCLE ( 'NONE', #524, 3.750000000000003553 ) ;
#68 = AXIS2_PLACEMENT_3D ( 'NONE', #654, #346, #658 ) ;
#69 = ADVANCED_FACE ( 'NONE', ( #1163, #960 ), #472, .F. ) ;
#70 = DIRECTION ( 'NONE',  ( 1.000000000000000000, 1.224646799147353207E-16, 0.000000000000000000 ) ) ;
#71 = EDGE_LOOP ( 'NONE', ( #279 ) ) ;
#72 = AXIS2_PLACEMENT_3D ( 'NONE', #638, #549, #1249 ) ;
#73 = DIRECTION ( 'NONE',  ( 1.000000000000000000, 0.000000000000000000, 0.000000000000000000 ) ) ;
#74 = VERTEX_POINT ( 'NONE', #34 ) ;
#75 = DIRECTION ( 'NONE',  ( 0.000000000000000000, 0.000000000000000000, 1.000000000000000000 ) ) ;
#76 = ORIENTED_EDGE ( 'NONE', *, *, #625, .T. ) ;
#77 = CARTESIAN_POINT ( 'NONE',  ( 0.000000000000000000, 0.000000000000000000, 0.000000000000000000 ) ) ;
#78 = FACE_OUTER_BOUND ( 'NONE', #331, .T. ) ;
#79 = ORIENTED_EDGE ( 'NONE', *, *, #641, .T. ) ;
#80 = DIRECTION ( 'NONE',  ( 0.000000000000000000, -0.000000000000000000, -1.000000000000000000 ) ) ;
#81 = ADVANCED_BREP_SHAPE_REPRESENTATION ( 'RD_TopElectronicsHolder__Default__47763A7E6DD5', ( #197, #886 ), #1081 ) ;
#82 = EDGE_CURVE ( 'NONE', #817, #817, #1238, .T. ) ;
#83 = FACE_BOUND ( 'NONE', #518, .T. ) ;
#84 = ORIENTED_EDGE ( 'NONE', *, *, #292, .T. ) ;
#85 = CARTESIAN_POINT ( 'NONE',  ( 2.484720362404980509, 8.571053861803907381, 0.000000000000000000 ) ) ;
#86 = CARTESIAN_POINT ( 'NONE',  ( 28.58472036240130620, 86.01409891124708906, 2.000000000000000000 ) ) ;
#87 = ORIENTED_EDGE ( 'NONE', *, *, #1235, .T. ) ;
#88 = DIRECTION ( 'NONE',  ( -3.469446951953614682E-16, -1.000000000000000000, -0.000000000000000000 ) ) ;
#89 = VERTEX_POINT ( 'NONE', #350 ) ;
#90 = DIRECTION ( 'NONE',  ( 1.577021341797097560E-16, -1.000000000000000000, 0.000000000000000000 ) ) ;
#91 = EDGE_CURVE ( 'NONE', #723, #723, #415, .T. ) ;
#92 = ORIENTED_EDGE ( 'NONE', *, *, #1127, .T. ) ;
#93 = DIRECTION ( 'NONE',  ( 1.000000000000000000, 1.224646799147353207E-16, 0.000000000000000000 ) ) ;
#94 = VERTEX_POINT ( 'NONE', #101 ) ;
#95 = DIRECTION ( 'NONE',  ( 0.000000000000000000, 0.000000000000000000, 1.000000000000000000 ) ) ;
#96 = COLOUR_RGB ( '',0.8941176470588234615, 0.8941176470588234615, 0.8941176470588234615 ) ;
#97 = EDGE_LOOP ( 'NONE', ( #138 ) ) ;
#98 = VECTOR ( 'NONE', #578, 1000.000000000000000 ) ;
#99 = AXIS2_PLACEMENT_3D ( 'NONE', #1029, #553, #928 ) ;
#100 = DIRECTION ( 'NONE',  ( -1.000000000000000000, 0.000000000000000000, 0.000000000000000000 ) ) ;
#101 = CARTESIAN_POINT ( 'NONE',  ( 3.534720362404980776, 48.57105386180391093, 4.500000000000000000 ) ) ;
#102 = EDGE_CURVE ( 'NONE', #358, #410, #754, .T. ) ;
#103 = LINE ( 'NONE', #912, #371 ) ;
#104 = ORIENTED_EDGE ( 'NONE', *, *, #429, .F. ) ;
#105 = LINE ( 'NONE', #915, #481 ) ;
#106 = CARTESIAN_POINT ( 'NONE',  ( 65.09146149428433148, 5.502060570383854099, 5.000000000000000888 ) ) ;
#107 = ORIENTED_EDGE ( 'NONE', *, *, #649, .F. ) ;
#108 = VERTEX_POINT ( 'NONE', #305 ) ;
#109 = DIRECTION ( 'NONE',  ( 1.000000000000000000, 0.000000000000000000, 0.000000000000000000 ) ) ;
#110 = EDGE_CURVE ( 'NONE', #645, #1078, #363, .T. ) ;
#111 = EDGE_LOOP ( 'NONE', ( #663 ) ) ;
#112 = LINE ( 'NONE', #323, #1260 ) ;
#113 = FACE_OUTER_BOUND ( 'NONE', #1215, .T. ) ;
#114 = EDGE_LOOP ( 'NONE', ( #1301 ) ) ;
#115 = CARTESIAN_POINT ( 'NONE',  ( 2.484720362404982730, 48.57105386180391093, 4.500000000000000000 ) ) ;
#116 = DIRECTION ( 'NONE',  ( 1.000000000000000000, 3.469446951953615175E-16, 0.000000000000000000 ) ) ;
#117 = ORIENTED_EDGE ( 'NONE', *, *, #528, .F. ) ;
#118 = AXIS2_PLACEMENT_3D ( 'NONE', #681, #1071, #969 ) ;
#119 = EDGE_CURVE ( 'NONE', #612, #612, #65, .T. ) ;
#120 = VECTOR ( 'NONE', #70, 1000.000000000000000 ) ;
#121 = AXIS2_PLACEMENT_3D ( 'NONE', #202, #1199, #981 ) ;
#122 = DIRECTION ( 'NONE',  ( 1.000000000000000000, 0.000000000000000000, 0.000000000000000000 ) ) ;
#123 = AXIS2_PLACEMENT_3D ( 'NONE', #1107, #608, #714 ) ;
#124 = AXIS2_PLACEMENT_3D ( 'NONE', #167, #277, #866 ) ;
#125 = DIRECTION ( 'NONE',  ( 1.000000000000000000, 0.000000000000000000, 0.000000000000000000 ) ) ;
#126 = FACE_OUTER_BOUND ( 'NONE', #713, .T. ) ;
#127 = ORIENTED_EDGE ( 'NONE', *, *, #203, .T. ) ;
#128 = DIRECTION ( 'NONE',  ( 1.000000000000000000, 0.000000000000000000, 0.000000000000000000 ) ) ;
#129 = EDGE_CURVE ( 'NONE', #1203, #1203, #182, .T. ) ;
#130 = FACE_OUTER_BOUND ( 'NONE', #22, .T. ) ;
#131 = VERTEX_POINT ( 'NONE', #342 ) ;
#132 = FACE_BOUND ( 'NONE', #1201, .T. ) ;
#133 = UNCERTAINTY_MEASURE_WITH_UNIT (LENGTH_MEASURE( 1.000000000000000082E-05 ), #1158, 'distance_accuracy_value', 'NONE');
#134 = CARTESIAN_POINT ( 'NONE',  ( 5.084720362404981486, 8.571053861803907381, 4.500000000000000000 ) ) ;
#135 = ADVANCED_FACE ( 'NONE', ( #374, #278 ), #483, .F. ) ;
#136 = EDGE_LOOP ( 'NONE', ( #566 ) ) ;
#137 = CARTESIAN_POINT ( 'NONE',  ( 28.58472036240130265, 51.01409891124709617, 2.000000000000000000 ) ) ;
#138 = ORIENTED_EDGE ( 'NONE', *, *, #411, .F. ) ;
#139 = DIRECTION ( 'NONE',  ( -1.000000000000000000, 0.000000000000000000, 0.000000000000000000 ) ) ;
#140 = FACE_BOUND ( 'NONE', #136, .T. ) ;
#141 = AXIS2_PLACEMENT_3D ( 'NONE', #632, #1120, #624 ) ;
#142 = CIRCLE ( 'NONE', #614, 2.500000000000000444 ) ;
#143 = LINE ( 'NONE', #1138, #905 ) ;
#144 = ORIENTED_EDGE ( 'NONE', *, *, #220, .F. ) ;
#145 = LINE ( 'NONE', #1147, #11 ) ;
#146 = DIRECTION ( 'NONE',  ( -1.000000000000000000, 0.000000000000000000, 0.000000000000000000 ) ) ;
#147 = EDGE_CURVE ( 'NONE', #1265, #752, #582, .T. ) ;
#148 = DIRECTION ( 'NONE',  ( 1.000000000000000000, 0.000000000000000000, 0.000000000000000000 ) ) ;
#149 = DIRECTION ( 'NONE',  ( -1.000000000000000000, 0.000000000000000000, -0.000000000000000000 ) ) ;
#150 = DIRECTION ( 'NONE',  ( 1.000000000000000000, 0.000000000000000000, 0.000000000000000000 ) ) ;
#151 = ORIENTED_EDGE ( 'NONE', *, *, #867, .T. ) ;
#152 = ADVANCED_FACE ( 'NONE', ( #175, #893 ), #298, .T. ) ;
#153 = DIRECTION ( 'NONE',  ( -1.000000000000000000, 0.000000000000000000, 0.000000000000000000 ) ) ;
#154 = AXIS2_PLACEMENT_3D ( 'NONE', #1155, #964, #1038 ) ;
#155 = DIRECTION ( 'NONE',  ( -1.000000000000000000, 0.000000000000000000, 0.000000000000000000 ) ) ;
#156 = ORIENTED_EDGE ( 'NONE', *, *, #835, .T. ) ;
#157 = ORIENTED_EDGE ( 'NONE', *, *, #1271, .T. ) ;
#158 = VECTOR ( 'NONE', #122, 1000.000000000000000 ) ;
#159 = CYLINDRICAL_SURFACE ( 'NONE', #861, 1.550000000000000933 ) ;
#160 = AXIS2_PLACEMENT_3D ( 'NONE', #890, #470, #400 ) ;
#161 = PLANE ( 'NONE',  #548 ) ;
#162 = DIRECTION ( 'NONE',  ( -9.912705577010329247E-17, -1.000000000000000000, 0.000000000000000000 ) ) ;
#163 = DIRECTION ( 'NONE',  ( 0.000000000000000000, 0.000000000000000000, 1.000000000000000000 ) ) ;
#164 = ADVANCED_FACE ( 'NONE', ( #791, #78 ), #976, .T. ) ;
#165 = ORIENTED_EDGE ( 'NONE', *, *, #1080, .F. ) ;
#166 =( NAMED_UNIT ( * ) PLANE_ANGLE_UNIT ( ) SI_UNIT ( $, .RADIAN. ) );
#167 = CARTESIAN_POINT ( 'NONE',  ( 18.18146149428434555, 5.502060570383854099, 5.000000000000000000 ) ) ;
#168 =( NAMED_UNIT ( * ) PLANE_ANGLE_UNIT ( ) SI_UNIT ( $, .RADIAN. ) );
#169 = DIRECTION ( 'NONE',  ( 1.000000000000000000, 0.000000000000000000, 0.000000000000000000 ) ) ;
#170 = DIRECTION ( 'NONE',  ( -1.000000000000000000, 0.000000000000000000, 0.000000000000000000 ) ) ;
#171 = DIRECTION ( 'NONE',  ( -0.000000000000000000, 0.000000000000000000, 1.000000000000000000 ) ) ;
#172 = EDGE_LOOP ( 'NONE', ( #868, #707, #706, #1095 ) ) ;
#173 = EDGE_CURVE ( 'NONE', #940, #749, #999, .T. ) ;
#174 = PLANE ( 'NONE',  #1200 ) ;
#175 = FACE_BOUND ( 'NONE', #700, .T. ) ;
#176 = EDGE_LOOP ( 'NONE', ( #240 ) ) ;
#177 = FACE_OUTER_BOUND ( 'NONE', #1100, .T. ) ;
#178 = EDGE_LOOP ( 'NONE', ( #789 ) ) ;
#179 = FACE_OUTER_BOUND ( 'NONE', #1146, .T. ) ;
#180 = EDGE_LOOP ( 'NONE', ( #1152 ) ) ;
#181 = ORIENTED_EDGE ( 'NONE', *, *, #1063, .T. ) ;
#182 = CIRCLE ( 'NONE', #694, 2.500000000000000444 ) ;
#183 = CARTESIAN_POINT ( 'NONE',  ( 26.08472036240130265, 88.51409891124708906, 0.000000000000000000 ) ) ;
#184 = AXIS2_PLACEMENT_3D ( 'NONE', #758, #1157, #254 ) ;
#185 = VECTOR ( 'NONE', #668, 1000.000000000000000 ) ;
#186 = FACE_OUTER_BOUND ( 'NONE', #1103, .T. ) ;
#187 = ADVANCED_FACE ( 'NONE', ( #1292, #1098 ), #1175, .T. ) ;
#188 = VECTOR ( 'NONE', #1172, 1000.000000000000000 ) ;
#189 = DIRECTION ( 'NONE',  ( 0.000000000000000000, 0.000000000000000000, 1.000000000000000000 ) ) ;
#190 = DIRECTION ( 'NONE',  ( 1.000000000000000000, 1.577021341797097560E-16, -0.000000000000000000 ) ) ;
#191 = PLANE ( 'NONE',  #716 ) ;
#192 = VERTEX_POINT ( 'NONE', #675 ) ;
#193 = FACE_OUTER_BOUND ( 'NONE', #848, .T. ) ;
#194 = EDGE_CURVE ( 'NONE', #543, #492, #705, .T. ) ;
#195 = EDGE_LOOP ( 'NONE', ( #950 ) ) ;
#196 = FACE_OUTER_BOUND ( 'NONE', #299, .T. ) ;
#197 = MANIFOLD_SOLID_BREP ( 'Boss-Extrude7', #736 ) ;
#198 = VERTEX_POINT ( 'NONE', #1010 ) ;
#199 = LINE ( 'NONE', #606, #1001 ) ;
#200 = ORIENTED_EDGE ( 'NONE', *, *, #292, .F. ) ;
#201 = ADVANCED_FACE ( 'NONE', ( #1082, #186 ), #191, .T. ) ;
#202 = CARTESIAN_POINT ( 'NONE',  ( 0.000000000000000000, 0.000000000000000000, 12.00000000000000000 ) ) ;
#203 = EDGE_CURVE ( 'NONE', #1067, #1286, #398, .T. ) ;
#204 = CARTESIAN_POINT ( 'NONE',  ( 7.713676621836000002, 86.11189042415848860, 5.000000000000000000 ) ) ;
#205 = VECTOR ( 'NONE', #379, 1000.000000000000000 ) ;
#206 = CARTESIAN_POINT ( 'NONE',  ( 28.58472036240130620, 86.01409891124708906, 2.000000000000000000 ) ) ;
#207 = AXIS2_PLACEMENT_3D ( 'NONE', #206, #719, #712 ) ;
#208 = EDGE_LOOP ( 'NONE', ( #466 ) ) ;
#209 = CIRCLE ( 'NONE', #939, 2.500000000000002220 ) ;
#210 = DIRECTION ( 'NONE',  ( -1.000000000000000000, 0.000000000000000000, 0.000000000000000000 ) ) ;
#211 = CIRCLE ( 'NONE', #884, 1.550000000000000933 ) ;
#212 = CARTESIAN_POINT ( 'NONE',  ( 18.18146149428434555, 28.76206057038385566, 17.00000000000000000 ) ) ;
#213 = CARTESIAN_POINT ( 'NONE',  ( 6.813676621836000535, 66.11189042415847439, 15.00000000000000355 ) ) ;
#214 = EDGE_CURVE ( 'NONE', #752, #458, #199, .T. ) ;
#215 = PLANE ( 'NONE',  #1109 ) ;
#216 = ORIENTED_EDGE ( 'NONE', *, *, #1271, .F. ) ;
#217 = DIRECTION ( 'NONE',  ( -1.000000000000000000, 0.000000000000000000, 0.000000000000000000 ) ) ;
#218 = ORIENTED_EDGE ( 'NONE', *, *, #872, .T. ) ;
#219 = CARTESIAN_POINT ( 'NONE',  ( 6.813676621836002312, 86.11189042415848860, 5.000000000000000888 ) ) ;
#220 = EDGE_CURVE ( 'NONE', #522, #522, #438, .T. ) ;
#221 = DIRECTION ( 'NONE',  ( 0.000000000000000000, -0.000000000000000000, -1.000000000000000000 ) ) ;
#222 = ORIENTED_EDGE ( 'NONE', *, *, #214, .T. ) ;
#223 = FACE_OUTER_BOUND ( 'NONE', #289, .T. ) ;
#224 = DIRECTION ( 'NONE',  ( 0.000000000000000000, 0.000000000000000000, 1.000000000000000000 ) ) ;
#225 = ORIENTED_EDGE ( 'NONE', *, *, #16, .F. ) ;
#226 = DIRECTION ( 'NONE',  ( -1.000000000000000000, -8.673617379884037937E-17, 0.000000000000000000 ) ) ;
#227 = FACE_OUTER_BOUND ( 'NONE', #386, .T. ) ;
#228 = ORIENTED_EDGE ( 'NONE', *, *, #387, .F. ) ;
#229 = VECTOR ( 'NONE', #1187, 1000.000000000000000 ) ;
#230 = AXIS2_PLACEMENT_3D ( 'NONE', #21, #916, #721 ) ;
#231 = CARTESIAN_POINT ( 'NONE',  ( 65.09146149428433148, 5.502060570383854099, 5.000000000000000000 ) ) ;
#232 = VECTOR ( 'NONE', #243, 1000.000000000000000 ) ;
#233 = LINE ( 'NONE', #345, #232 ) ;
#234 = ORIENTED_EDGE ( 'NONE', *, *, #194, .F. ) ;
#235 = EDGE_CURVE ( 'NONE', #492, #1124, #812, .T. ) ;
#236 = CARTESIAN_POINT ( 'NONE',  ( 0.000000000000000000, 102.5710538618021275, 5.000000000000000000 ) ) ;
#237 = DIRECTION ( 'NONE',  ( 1.000000000000000000, 0.000000000000000000, 0.000000000000000000 ) ) ;
#238 = DIRECTION ( 'NONE',  ( 0.000000000000000000, 0.000000000000000000, 1.000000000000000000 ) ) ;
#239 = ORIENTED_EDGE ( 'NONE', *, *, #913, .F. ) ;
#240 = ORIENTED_EDGE ( 'NONE', *, *, #297, .T. ) ;
#241 = CARTESIAN_POINT ( 'NONE',  ( 0.000000000000000000, 0.000000000000000000, 0.000000000000000000 ) ) ;
#242 = CARTESIAN_POINT ( 'NONE',  ( 26.08472036240130976, 88.51409891124708906, 2.000000000000000000 ) ) ;
#243 = DIRECTION ( 'NONE',  ( -1.000000000000000000, -0.000000000000000000, -0.000000000000000000 ) ) ;
#244 = ORIENTED_EDGE ( 'NONE', *, *, #739, .F. ) ;
#245 = DIRECTION ( 'NONE',  ( 0.000000000000000000, -1.000000000000000000, 0.000000000000000000 ) ) ;
#246 = AXIS2_PLACEMENT_3D ( 'NONE', #855, #226, #530 ) ;
#247 = FACE_OUTER_BOUND ( 'NONE', #1018, .T. ) ;
#248 = AXIS2_PLACEMENT_3D ( 'NONE', #1002, #602, #1295 ) ;
#249 = AXIS2_PLACEMENT_3D ( 'NONE', #1294, #1287, #80 ) ;
#250 = DIRECTION ( 'NONE',  ( -1.000000000000000000, 0.000000000000000000, 0.000000000000000000 ) ) ;
#251 = ORIENTED_EDGE ( 'NONE', *, *, #863, .T. ) ;
#252 = ADVANCED_FACE ( 'NONE', ( #517 ), #818, .F. ) ;
#253 = CARTESIAN_POINT ( 'NONE',  ( 0.000000000000000000, 0.000000000000000000, 5.000000000000000000 ) ) ;
#254 = DIRECTION ( 'NONE',  ( -1.000000000000000000, 0.000000000000000000, 0.000000000000000000 ) ) ;
#255 = EDGE_CURVE ( 'NONE', #1078, #1236, #1105, .T. ) ;
#256 = CARTESIAN_POINT ( 'NONE',  ( 0.000000000000000000, 0.000000000000000000, 2.000000000000000000 ) ) ;
#257 = CARTESIAN_POINT ( 'NONE',  ( 24.08472036240130620, 46.51409891124709617, 5.000000000000000000 ) ) ;
#258 = LINE ( 'NONE', #795, #1257 ) ;
#259 = EDGE_LOOP ( 'NONE', ( #14 ) ) ;
#260 = FACE_BOUND ( 'NONE', #1084, .T. ) ;
#261 = DIRECTION ( 'NONE',  ( 0.000000000000000000, 0.000000000000000000, 1.000000000000000000 ) ) ;
#262 = EDGE_LOOP ( 'NONE', ( #1137 ) ) ;
#263 = FACE_OUTER_BOUND ( 'NONE', #195, .T. ) ;
#264 = ADVANCED_FACE ( 'NONE', ( #227 ), #416, .F. ) ;
#265 = FACE_OUTER_BOUND ( 'NONE', #1314, .T. ) ;
#266 = AXIS2_PLACEMENT_3D ( 'NONE', #991, #592, #797 ) ;
#267 = EDGE_LOOP ( 'NONE', ( #473 ) ) ;
#268 = ORIENTED_EDGE ( 'NONE', *, *, #1252, .T. ) ;
#269 = VECTOR ( 'NONE', #90, 1000.000000000000000 ) ;
#270 = CARTESIAN_POINT ( 'NONE',  ( 66.08472036240128489, 88.51409891124708906, 12.00000000000000000 ) ) ;
#271 = AXIS2_PLACEMENT_3D ( 'NONE', #300, #406, #519 ) ;
#272 = CARTESIAN_POINT ( 'NONE',  ( 5.084720362404981486, 48.57105386180391093, 4.500000000000000000 ) ) ;
#273 = DIRECTION ( 'NONE',  ( 1.000000000000000000, 0.000000000000000000, 0.000000000000000000 ) ) ;
#274 = EDGE_CURVE ( 'NONE', #408, #408, #1111, .T. ) ;
#275 = PLANE ( 'NONE',  #779 ) ;
#276 = CYLINDRICAL_SURFACE ( 'NONE', #1083, 1.286713773507058844 ) ;
#277 = DIRECTION ( 'NONE',  ( 0.000000000000000000, 0.000000000000000000, 1.000000000000000000 ) ) ;
#278 = FACE_OUTER_BOUND ( 'NONE', #744, .T. ) ;
#279 = ORIENTED_EDGE ( 'NONE', *, *, #82, .F. ) ;
#280 = FACE_BOUND ( 'NONE', #1077, .T. ) ;
#281 = LINE ( 'NONE', #302, #98 ) ;
#282 = FACE_OUTER_BOUND ( 'NONE', #1106, .T. ) ;
#283 = DIRECTION ( 'NONE',  ( -0.000000000000000000, -0.000000000000000000, -1.000000000000000000 ) ) ;
#284 = FILL_AREA_STYLE ('',( #908 ) ) ;
#285 = ORIENTED_EDGE ( 'NONE', *, *, #1159, .T. ) ;
#286 = CARTESIAN_POINT ( 'NONE',  ( 28.58472036240130265, 51.01409891124709617, 0.000000000000000000 ) ) ;
#287 = DIRECTION ( 'NONE',  ( 1.000000000000000000, 0.000000000000000000, -0.000000000000000000 ) ) ;
#288 = CARTESIAN_POINT ( 'NONE',  ( 75.08472036240129910, 102.5710538618021275, 0.000000000000000000 ) ) ;
#289 = EDGE_LOOP ( 'NONE', ( #1092 ) ) ;
#290 = FACE_OUTER_BOUND ( 'NONE', #62, .T. ) ;
#291 = CIRCLE ( 'NONE', #184, 1.550000000000000933 ) ;
#292 = EDGE_CURVE ( 'NONE', #52, #673, #831, .T. ) ;
#293 = AXIS2_PLACEMENT_3D ( 'NONE', #853, #1142, #153 ) ;
#294 = PLANE ( 'NONE',  #1222 ) ;
#295 = LINE ( 'NONE', #996, #269 ) ;
#296 = VERTEX_POINT ( 'NONE', #213 ) ;
#297 = EDGE_CURVE ( 'NONE', #619, #619, #1220, .T. ) ;
#298 = PLANE ( 'NONE',  #857 ) ;
#299 = EDGE_LOOP ( 'NONE', ( #513 ) ) ;
#300 = CARTESIAN_POINT ( 'NONE',  ( 60.00000000000000000, 102.5710538618021275, 0.000000000000000000 ) ) ;
#301 = ORIENTED_EDGE ( 'NONE', *, *, #987, .T. ) ;
#302 = CARTESIAN_POINT ( 'NONE',  ( 75.08472036240129910, 7.347880794884118356E-15, 5.000000000000000000 ) ) ;
#303 = ORIENTED_EDGE ( 'NONE', *, *, #670, .F. ) ;
#304 = CARTESIAN_POINT ( 'NONE',  ( 26.08472036240130620, 48.51409891124709617, 2.000000000000000000 ) ) ;
#305 = CARTESIAN_POINT ( 'NONE',  ( 20.68146149428434555, 28.76206057038385566, 17.00000000000000000 ) ) ;
#306 = DIRECTION ( 'NONE',  ( -3.469446951953615175E-16, 1.000000000000000000, 0.000000000000000000 ) ) ;
#307 = ORIENTED_EDGE ( 'NONE', *, *, #32, .F. ) ;
#308 = PLANE ( 'NONE',  #271 ) ;
#309 = ADVANCED_FACE ( 'NONE', ( #725, #1225 ), #523, .F. ) ;
#310 = FACE_BOUND ( 'NONE', #558, .T. ) ;
#311 = ORIENTED_EDGE ( 'NONE', *, *, #1205, .F. ) ;
#312 = CARTESIAN_POINT ( 'NONE',  ( 6.813676621836000535, 66.11189042415847439, 5.000000000000000888 ) ) ;
#313 = CARTESIAN_POINT ( 'NONE',  ( 68.08472036240131331, 90.51409891124708906, 5.000000000000000000 ) ) ;
#314 = AXIS2_PLACEMENT_3D ( 'NONE', #973, #63, #885 ) ;
#315 = ORIENTED_EDGE ( 'NONE', *, *, #255, .T. ) ;
#316 = CIRCLE ( 'NONE', #160, 1.525854832872129085 ) ;
#317 = VECTOR ( 'NONE', #1244, 1000.000000000000000 ) ;
#318 = CARTESIAN_POINT ( 'NONE',  ( 5.213676621836000002, 86.11189042415848860, 15.00000000000000355 ) ) ;
#319 = EDGE_CURVE ( 'NONE', #954, #1202, #103, .T. ) ;
#320 = VERTEX_POINT ( 'NONE', #967 ) ;
#321 = DIRECTION ( 'NONE',  ( -1.000000000000000000, 0.000000000000000000, 0.000000000000000000 ) ) ;
#322 = EDGE_LOOP ( 'NONE', ( #746 ) ) ;
#323 = CARTESIAN_POINT ( 'NONE',  ( 28.58472036240130265, 51.01409891124709617, 2.000000000000000000 ) ) ;
#324 = CARTESIAN_POINT ( 'NONE',  ( 5.084720362404981486, 48.57105386180391093, 4.500000000000000000 ) ) ;
#325 = CARTESIAN_POINT ( 'NONE',  ( 66.21733604610300006, 5.502060570383854099, 17.00000000000000000 ) ) ;
#326 = DIRECTION ( 'NONE',  ( 0.000000000000000000, 0.000000000000000000, 1.000000000000000000 ) ) ;
#327 = ORIENTED_EDGE ( 'NONE', *, *, #82, .T. ) ;
#328 = DIRECTION ( 'NONE',  ( 0.000000000000000000, -0.000000000000000000, -1.000000000000000000 ) ) ;
#329 = DIRECTION ( 'NONE',  ( -1.000000000000000000, 0.000000000000000000, 0.000000000000000000 ) ) ;
#330 = EDGE_CURVE ( 'NONE', #358, #909, #13, .T. ) ;
#331 = EDGE_LOOP ( 'NONE', ( #327 ) ) ;
#332 = AXIS2_PLACEMENT_3D ( 'NONE', #1267, #163, #573 ) ;
#333 = AXIS2_PLACEMENT_3D ( 'NONE', #478, #190, #487 ) ;
#334 = CARTESIAN_POINT ( 'NONE',  ( 65.09146149428433148, 5.502060570383854099, 17.00000000000000000 ) ) ;
#335 = DIRECTION ( 'NONE',  ( 0.000000000000000000, 0.000000000000000000, 1.000000000000000000 ) ) ;
#336 = EDGE_LOOP ( 'NONE', ( #1182 ) ) ;
#337 = ADVANCED_FACE ( 'NONE', ( #19 ), #215, .T. ) ;
#338 = DIRECTION ( 'NONE',  ( -0.000000000000000000, 0.000000000000000000, 1.000000000000000000 ) ) ;
#339 = ORIENTED_EDGE ( 'NONE', *, *, #1027, .F. ) ;
#340 = DIRECTION ( 'NONE',  ( -1.000000000000000000, 0.000000000000000000, 0.000000000000000000 ) ) ;
#341 = FACE_OUTER_BOUND ( 'NONE', #370, .T. ) ;
#342 = CARTESIAN_POINT ( 'NONE',  ( 28.58472036240130265, 51.01409891124709617, 2.000000000000000000 ) ) ;
#343 = DIRECTION ( 'NONE',  ( 1.000000000000000000, 0.000000000000000000, 0.000000000000000000 ) ) ;
#344 = EDGE_CURVE ( 'NONE', #623, #623, #417, .T. ) ;
#345 = CARTESIAN_POINT ( 'NONE',  ( 26.08472036240130620, 48.51409891124709617, 2.000000000000000000 ) ) ;
#346 = DIRECTION ( 'NONE',  ( -0.000000000000000000, -0.000000000000000000, -1.000000000000000000 ) ) ;
#347 = VECTOR ( 'NONE', #620, 1000.000000000000000 ) ;
#348 = CYLINDRICAL_SURFACE ( 'NONE', #373, 3.750000000000000444 ) ;
#349 = ADVANCED_FACE ( 'NONE', ( #126 ), #531, .F. ) ;
#350 = CARTESIAN_POINT ( 'NONE',  ( 8.834720362404985039, 48.57105386180391093, 7.000000000000000000 ) ) ;
#351 = CARTESIAN_POINT ( 'NONE',  ( 68.08472036240131331, 46.51409891124709617, 12.00000000000000000 ) ) ;
#352 = DIRECTION ( 'NONE',  ( 0.000000000000000000, 0.000000000000000000, 1.000000000000000000 ) ) ;
#353 = ORIENTED_EDGE ( 'NONE', *, *, #1246, .T. ) ;
#354 = ORIENTED_EDGE ( 'NONE', *, *, #1167, .T. ) ;
#355 = ORIENTED_EDGE ( 'NONE', *, *, #1032, .T. ) ;
#356 = DIRECTION ( 'NONE',  ( -1.000000000000000000, -0.000000000000000000, -0.000000000000000000 ) ) ;
#357 = EDGE_CURVE ( 'NONE', #74, #458, #404, .T. ) ;
#358 = VERTEX_POINT ( 'NONE', #304 ) ;
#359 = DIRECTION ( 'NONE',  ( -0.000000000000000000, 0.000000000000000000, 1.000000000000000000 ) ) ;
#360 = FACE_OUTER_BOUND ( 'NONE', #576, .T. ) ;
#361 = FACE_BOUND ( 'NONE', #992, .T. ) ;
#362 = EDGE_CURVE ( 'NONE', #673, #954, #1311, .T. ) ;
#363 = LINE ( 'NONE', #351, #1275 ) ;
#364 = EDGE_LOOP ( 'NONE', ( #985 ) ) ;
#365 = CARTESIAN_POINT ( 'NONE',  ( 65.09146149428434569, 28.76206057038385566, 17.00000000000000000 ) ) ;
#366 = AXIS2_PLACEMENT_3D ( 'NONE', #1069, #171, #983 ) ;
#367 = FACE_OUTER_BOUND ( 'NONE', #1306, .T. ) ;
#368 = AXIS2_PLACEMENT_3D ( 'NONE', #512, #430, #929 ) ;
#369 = DIRECTION ( 'NONE',  ( 0.000000000000000000, 0.000000000000000000, 1.000000000000000000 ) ) ;
#370 = EDGE_LOOP ( 'NONE', ( #532 ) ) ;
#371 = VECTOR ( 'NONE', #1025, 1000.000000000000000 ) ;
#372 = CARTESIAN_POINT ( 'NONE',  ( 66.37817526779139143, 28.76206057038385566, 17.00000000000000000 ) ) ;
#373 = AXIS2_PLACEMENT_3D ( 'NONE', #435, #851, #250 ) ;
#374 = FACE_OUTER_BOUND ( 'NONE', #1309, .T. ) ;
#375 = ORIENTED_EDGE ( 'NONE', *, *, #641, .F. ) ;
#376 = DIRECTION ( 'NONE',  ( 0.000000000000000000, 0.000000000000000000, 1.000000000000000000 ) ) ;
#377 = ORIENTED_EDGE ( 'NONE', *, *, #1127, .F. ) ;
#378 = DIRECTION ( 'NONE',  ( 0.000000000000000000, 0.000000000000000000, 1.000000000000000000 ) ) ;
#379 = DIRECTION ( 'NONE',  ( -1.000000000000000000, -0.000000000000000000, -0.000000000000000000 ) ) ;
#380 = EDGE_LOOP ( 'NONE', ( #1239 ) ) ;
#381 = DIRECTION ( 'NONE',  ( -0.000000000000000000, 0.000000000000000000, 1.000000000000000000 ) ) ;
#382 = DIRECTION ( 'NONE',  ( 0.000000000000000000, 0.000000000000000000, -1.000000000000000000 ) ) ;
#383 = ORIENTED_EDGE ( 'NONE', *, *, #51, .T. ) ;
#384 = FACE_OUTER_BOUND ( 'NONE', #1284, .T. ) ;
#385 = CARTESIAN_POINT ( 'NONE',  ( 28.58472036240130620, 86.01409891124708906, 0.000000000000000000 ) ) ;
#386 = EDGE_LOOP ( 'NONE', ( #607, #926, #557, #1151 ) ) ;
#387 = EDGE_CURVE ( 'NONE', #704, #704, #651, .T. ) ;
#388 = CARTESIAN_POINT ( 'NONE',  ( 18.18146149428434555, 28.76206057038385566, 17.00000000000000000 ) ) ;
#389 = ORIENTED_EDGE ( 'NONE', *, *, #235, .F. ) ;
#390 = CARTESIAN_POINT ( 'NONE',  ( 66.08472036240128489, 48.51409891124709617, 2.000000000000000000 ) ) ;
#391 = CARTESIAN_POINT ( 'NONE',  ( 0.000000000000000000, 0.000000000000000000, 0.000000000000000000 ) ) ;
#392 = PLANE ( 'NONE',  #333 ) ;
#393 = EDGE_CURVE ( 'NONE', #1124, #192, #1034, .T. ) ;
#394 = VERTEX_POINT ( 'NONE', #115 ) ;
#395 = VECTOR ( 'NONE', #1123, 1000.000000000000000 ) ;
#396 = ADVANCED_FACE ( 'NONE', ( #39 ), #450, .F. ) ;
#397 = AXIS2_PLACEMENT_3D ( 'NONE', #1303, #189, #1074 ) ;
#398 = LINE ( 'NONE', #806, #1059 ) ;
#399 = EDGE_LOOP ( 'NONE', ( #157 ) ) ;
#400 = DIRECTION ( 'NONE',  ( 1.000000000000000000, 0.000000000000000000, 0.000000000000000000 ) ) ;
#401 = LINE ( 'NONE', #1094, #46 ) ;
#402 = ORIENTED_EDGE ( 'NONE', *, *, #459, .F. ) ;
#403 = CARTESIAN_POINT ( 'NONE',  ( 66.21733604610300006, 5.502060570383854099, 5.000000000000000888 ) ) ;
#404 = LINE ( 'NONE', #1096, #506 ) ;
#405 = EDGE_CURVE ( 'NONE', #94, #94, #291, .T. ) ;
#406 = DIRECTION ( 'NONE',  ( 0.000000000000000000, 1.000000000000000000, 0.000000000000000000 ) ) ;
#407 = DIRECTION ( 'NONE',  ( -0.000000000000000000, -0.000000000000000000, -1.000000000000000000 ) ) ;
#408 = VERTEX_POINT ( 'NONE', #810 ) ;
#409 = CARTESIAN_POINT ( 'NONE',  ( 5.213676621836000002, 86.11189042415848860, 5.000000000000000888 ) ) ;
#410 = VERTEX_POINT ( 'NONE', #959 ) ;
#411 = EDGE_CURVE ( 'NONE', #1015, #1015, #67, .T. ) ;
#412 = CARTESIAN_POINT ( 'NONE',  ( 66.08472036240131331, 48.51409891124709617, 12.00000000000000000 ) ) ;
#413 = VERTEX_POINT ( 'NONE', #1224 ) ;
#414 = VECTOR ( 'NONE', #580, 1000.000000000000000 ) ;
#415 = CIRCLE ( 'NONE', #154, 2.500000000000002220 ) ;
#416 = PLANE ( 'NONE',  #207 ) ;
#417 = CIRCLE ( 'NONE', #1153, 2.499999999999998668 ) ;
#418 = EDGE_LOOP ( 'NONE', ( #225, #469, #1073, #683 ) ) ;
#419 = VECTOR ( 'NONE', #88, 1000.000000000000000 ) ;
#420 = PLANE ( 'NONE',  #1061 ) ;
#421 = AXIS2_PLACEMENT_3D ( 'NONE', #590, #688, #1079 ) ;
#422 = LINE ( 'NONE', #715, #587 ) ;
#423 = CARTESIAN_POINT ( 'NONE',  ( 67.59146149428433148, 5.502060570383854099, 5.000000000000000000 ) ) ;
#424 = DIRECTION ( 'NONE',  ( 1.000000000000000000, 0.000000000000000000, 0.000000000000000000 ) ) ;
#425 = ORIENTED_EDGE ( 'NONE', *, *, #601, .F. ) ;
#426 = DIRECTION ( 'NONE',  ( -1.000000000000000000, 0.000000000000000000, 0.000000000000000000 ) ) ;
#427 = CARTESIAN_POINT ( 'NONE',  ( 5.213676621836000002, 86.11189042415848860, 15.00000000000000355 ) ) ;
#428 = PLANE ( 'NONE',  #1024 ) ;
#429 = EDGE_CURVE ( 'NONE', #909, #1067, #463, .T. ) ;
#430 = DIRECTION ( 'NONE',  ( -0.000000000000000000, 1.000000000000000000, 0.000000000000000000 ) ) ;
#431 = ORIENTED_EDGE ( 'NONE', *, *, #1032, .F. ) ;
#432 = CARTESIAN_POINT ( 'NONE',  ( 26.08472036240130620, 48.51409891124709617, 12.00000000000000000 ) ) ;
#433 = ORIENTED_EDGE ( 'NONE', *, *, #820, .T. ) ;
#434 = DIRECTION ( 'NONE',  ( 0.000000000000000000, 0.000000000000000000, 1.000000000000000000 ) ) ;
#435 = CARTESIAN_POINT ( 'NONE',  ( 5.084720362404981486, 8.571053861803907381, 7.000000000000000000 ) ) ;
#436 = ADVANCED_FACE ( 'NONE', ( #1170, #265 ), #1162, .T. ) ;
#437 = EDGE_LOOP ( 'NONE', ( #1262, #1037, #5, #972 ) ) ;
#438 = CIRCLE ( 'NONE', #1173, 1.600000000000002531 ) ;
#439 = AXIS2_PLACEMENT_3D ( 'NONE', #1055, #1051, #862 ) ;
#440 = CARTESIAN_POINT ( 'NONE',  ( 0.000000000000000000, 0.000000000000000000, 0.000000000000000000 ) ) ;
#441 = AXIS2_PLACEMENT_3D ( 'NONE', #965, #691, #793 ) ;
#442 = FACE_OUTER_BOUND ( 'NONE', #742, .T. ) ;
#443 = EDGE_LOOP ( 'NONE', ( #2 ) ) ;
#444 = EDGE_CURVE ( 'NONE', #192, #901, #747, .T. ) ;
#445 = PLANE ( 'NONE',  #980 ) ;
#446 = CARTESIAN_POINT ( 'NONE',  ( 65.09146149428434569, 28.76206057038385566, 5.000000000000000888 ) ) ;
#447 = DIRECTION ( 'NONE',  ( -0.000000000000000000, -0.000000000000000000, 1.000000000000000000 ) ) ;
#448 = ADVANCED_FACE ( 'NONE', ( #709, #1068 ), #1305, .T. ) ;
#449 = CARTESIAN_POINT ( 'NONE',  ( 5.213676621836000002, 66.11189042415847439, 15.00000000000000355 ) ) ;
#450 = PLANE ( 'NONE',  #439 ) ;
#451 = PLANE ( 'NONE',  #246 ) ;
#452 = ORIENTED_EDGE ( 'NONE', *, *, #330, .T. ) ;
#453 = DIRECTION ( 'NONE',  ( -0.000000000000000000, -0.000000000000000000, -1.000000000000000000 ) ) ;
#454 = AXIS2_PLACEMENT_3D ( 'NONE', #771, #697, #870 ) ;
#455 = CARTESIAN_POINT ( 'NONE',  ( 75.08472036240129910, 7.347880794884118356E-15, 0.000000000000000000 ) ) ;
#456 = VECTOR ( 'NONE', #770, 1000.000000000000000 ) ;
#457 = AXIS2_PLACEMENT_3D ( 'NONE', #365, #900, #73 ) ;
#458 = VERTEX_POINT ( 'NONE', #875 ) ;
#459 = EDGE_CURVE ( 'NONE', #823, #823, #1302, .T. ) ;
#460 = EDGE_LOOP ( 'NONE', ( #251 ) ) ;
#461 = PRODUCT_DEFINITION_FORMATION_WITH_SPECIFIED_SOURCE ( 'ANY', '', #1016, .NOT_KNOWN. ) ;
#462 = DIRECTION ( 'NONE',  ( 0.000000000000000000, 0.000000000000000000, -1.000000000000000000 ) ) ;
#463 = LINE ( 'NONE', #242, #544 ) ;
#464 = ORIENTED_EDGE ( 'NONE', *, *, #496, .F. ) ;
#465 = EDGE_LOOP ( 'NONE', ( #315, #583, #339, #665 ) ) ;
#466 = ORIENTED_EDGE ( 'NONE', *, *, #344, .F. ) ;
#467 = ADVANCED_FACE ( 'NONE', ( #367, #1209 ), #1190, .T. ) ;
#468 = LINE ( 'NONE', #790, #1045 ) ;
#469 = ORIENTED_EDGE ( 'NONE', *, *, #867, .F. ) ;
#470 = DIRECTION ( 'NONE',  ( 0.000000000000000000, -0.000000000000000000, -1.000000000000000000 ) ) ;
#471 = FACE_OUTER_BOUND ( 'NONE', #832, .T. ) ;
#472 = CYLINDRICAL_SURFACE ( 'NONE', #44, 2.600000000000000533 ) ;
#473 = ORIENTED_EDGE ( 'NONE', *, *, #920, .T. ) ;
#474 = APPLICATION_PROTOCOL_DEFINITION ( 'draft international standard', 'automotive_design', 1998, #693 ) ;
#475 = DIRECTION ( 'NONE',  ( 0.000000000000000000, 0.000000000000000000, 1.000000000000000000 ) ) ;
#476 = DIRECTION ( 'NONE',  ( -1.000000000000000000, 0.000000000000000000, 0.000000000000000000 ) ) ;
#477 = DIRECTION ( 'NONE',  ( -1.000000000000000000, -1.224646799147353207E-16, 0.000000000000000000 ) ) ;
#478 = CARTESIAN_POINT ( 'NONE',  ( 24.08472036240129910, 90.51409891124708906, 12.00000000000000000 ) ) ;
#479 = VECTOR ( 'NONE', #1014, 1000.000000000000000 ) ;
#480 = EDGE_LOOP ( 'NONE', ( #904 ) ) ;
#481 = VECTOR ( 'NONE', #819, 1000.000000000000000 ) ;
#482 = AXIS2_PLACEMENT_3D ( 'NONE', #53, #871, #773 ) ;
#483 = CYLINDRICAL_SURFACE ( 'NONE', #266, 1.286713773507058844 ) ;
#484 = ORIENTED_EDGE ( 'NONE', *, *, #667, .T. ) ;
#485 = CARTESIAN_POINT ( 'NONE',  ( 26.08472036240130265, 88.51409891124708906, 12.00000000000000000 ) ) ;
#486 = ADVANCED_FACE ( 'NONE', ( #1289 ), #392, .F. ) ;
#487 = DIRECTION ( 'NONE',  ( -1.577021341797097560E-16, 1.000000000000000000, 0.000000000000000000 ) ) ;
#488 = ORIENTED_EDGE ( 'NONE', *, *, #32, .T. ) ;
#489 = ORIENTED_EDGE ( 'NONE', *, *, #760, .T. ) ;
#490 = PLANE ( 'NONE',  #1223 ) ;
#491 = CARTESIAN_POINT ( 'NONE',  ( 66.08472036240131331, 48.51409891124709617, 0.000000000000000000 ) ) ;
#492 = VERTEX_POINT ( 'NONE', #385 ) ;
#493 = DIRECTION ( 'NONE',  ( 0.000000000000000000, 0.000000000000000000, 1.000000000000000000 ) ) ;
#494 = ADVANCED_FACE ( 'NONE', ( #794 ), #275, .F. ) ;
#495 = CARTESIAN_POINT ( 'NONE',  ( 65.09146149428434569, 28.76206057038385566, 17.00000000000000000 ) ) ;
#496 = EDGE_CURVE ( 'NONE', #849, #410, #401, .T. ) ;
#497 = EDGE_LOOP ( 'NONE', ( #218 ) ) ;
#498 = CARTESIAN_POINT ( 'NONE',  ( 19.46817526779140550, 28.76206057038385566, 17.00000000000000000 ) ) ;
#499 = SURFACE_SIDE_STYLE ('',( #1279 ) ) ;
#500 = ORIENTED_EDGE ( 'NONE', *, *, #739, .T. ) ;
#501 = DIRECTION ( 'NONE',  ( 0.000000000000000000, 0.000000000000000000, -1.000000000000000000 ) ) ;
#502 = CARTESIAN_POINT ( 'NONE',  ( 0.000000000000000000, 102.5710538618021275, 0.000000000000000000 ) ) ;
#503 = AXIS2_PLACEMENT_3D ( 'NONE', #60, #888, #476 ) ;
#504 = VERTEX_POINT ( 'NONE', #1097 ) ;
#505 = ADVANCED_FACE ( 'NONE', ( #196, #609 ), #595, .T. ) ;
#506 = VECTOR ( 'NONE', #93, 1000.000000000000000 ) ;
#507 = VECTOR ( 'NONE', #1255, 1000.000000000000000 ) ;
#508 =( NAMED_UNIT ( * ) SI_UNIT ( $, .STERADIAN. ) SOLID_ANGLE_UNIT ( ) );
#509 = ORIENTED_EDGE ( 'NONE', *, *, #203, .F. ) ;
#510 = DIRECTION ( 'NONE',  ( 0.000000000000000000, -1.000000000000000000, 0.000000000000000000 ) ) ;
#511 = CARTESIAN_POINT ( 'NONE',  ( 67.59146149428435990, 28.76206057038385566, 5.000000000000000000 ) ) ;
#512 = CARTESIAN_POINT ( 'NONE',  ( 26.08472036240130265, 88.51409891124708906, 0.000000000000000000 ) ) ;
#513 = ORIENTED_EDGE ( 'NONE', *, *, #906, .F. ) ;
#514 = FACE_OUTER_BOUND ( 'NONE', #465, .T. ) ;
#515 = DIRECTION ( 'NONE',  ( 1.000000000000000000, 0.000000000000000000, 0.000000000000000000 ) ) ;
#516 = CARTESIAN_POINT ( 'NONE',  ( 7.713676621836000002, 66.11189042415847439, 5.000000000000000000 ) ) ;
#517 = FACE_OUTER_BOUND ( 'NONE', #1030, .T. ) ;
#518 = EDGE_LOOP ( 'NONE', ( #425 ) ) ;
#519 = DIRECTION ( 'NONE',  ( 0.000000000000000000, -0.000000000000000000, 1.000000000000000000 ) ) ;
#520 = CARTESIAN_POINT ( 'NONE',  ( 18.18146149428434555, 5.502060570383854099, 17.00000000000000000 ) ) ;
#521 = ORIENTED_EDGE ( 'NONE', *, *, #1252, .F. ) ;
#522 = VERTEX_POINT ( 'NONE', #219 ) ;
#523 = CYLINDRICAL_SURFACE ( 'NONE', #882, 1.525854832872129085 ) ;
#524 = AXIS2_PLACEMENT_3D ( 'NONE', #563, #50, #150 ) ;
#525 = EDGE_LOOP ( 'NONE', ( #383 ) ) ;
#526 = VECTOR ( 'NONE', #1183, 1000.000000000000000 ) ;
#527 = CIRCLE ( 'NONE', #124, 2.499999999999998668 ) ;
#528 = EDGE_CURVE ( 'NONE', #458, #537, #281, .T. ) ;
#529 = DIRECTION ( 'NONE',  ( 1.000000000000000000, 0.000000000000000000, 0.000000000000000000 ) ) ;
#530 = DIRECTION ( 'NONE',  ( 8.673617379884037937E-17, -1.000000000000000000, 0.000000000000000000 ) ) ;
#531 = PLANE ( 'NONE',  #368 ) ;
#532 = ORIENTED_EDGE ( 'NONE', *, *, #920, .F. ) ;
#533 = FACE_OUTER_BOUND ( 'NONE', #336, .T. ) ;
#534 = ADVANCED_FACE ( 'NONE', ( #809, #83 ), #895, .T. ) ;
#535 = ORIENTED_EDGE ( 'NONE', *, *, #16, .T. ) ;
#536 = FACE_OUTER_BOUND ( 'NONE', #643, .T. ) ;
#537 = VERTEX_POINT ( 'NONE', #1075 ) ;
#538 = LINE ( 'NONE', #241, #507 ) ;
#539 = FACE_OUTER_BOUND ( 'NONE', #111, .T. ) ;
#540 = ORIENTED_EDGE ( 'NONE', *, *, #1135, .T. ) ;
#541 = ADVANCED_FACE ( 'NONE', ( #179, #802 ), #1102, .T. ) ;
#542 = AXIS2_PLACEMENT_3D ( 'NONE', #1141, #858, #148 ) ;
#543 = VERTEX_POINT ( 'NONE', #586 ) ;
#544 = VECTOR ( 'NONE', #762, 1000.000000000000000 ) ;
#545 = DIRECTION ( 'NONE',  ( 0.000000000000000000, 0.000000000000000000, 1.000000000000000000 ) ) ;
#546 = VECTOR ( 'NONE', #1122, 1000.000000000000000 ) ;
#547 = FACE_OUTER_BOUND ( 'NONE', #782, .T. ) ;
#548 = AXIS2_PLACEMENT_3D ( 'NONE', #1197, #701, #477 ) ;
#549 = DIRECTION ( 'NONE',  ( 0.000000000000000000, 0.000000000000000000, 1.000000000000000000 ) ) ;
#550 = ORIENTED_EDGE ( 'NONE', *, *, #679, .T. ) ;
#551 = EDGE_CURVE ( 'NONE', #837, #1202, #295, .T. ) ;
#552 = FACE_BOUND ( 'NONE', #259, .T. ) ;
#553 = DIRECTION ( 'NONE',  ( -0.000000000000000000, -0.000000000000000000, -1.000000000000000000 ) ) ;
#554 = VERTEX_POINT ( 'NONE', #502 ) ;
#555 = FACE_BOUND ( 'NONE', #208, .T. ) ;
#556 = UNCERTAINTY_MEASURE_WITH_UNIT (LENGTH_MEASURE( 1.000000000000000082E-05 ), #1181, 'distance_accuracy_value', 'NONE');
#557 = ORIENTED_EDGE ( 'NONE', *, *, #1235, .F. ) ;
#558 = EDGE_LOOP ( 'NONE', ( #216 ) ) ;
#559 = CARTESIAN_POINT ( 'NONE',  ( 5.213676621836000002, 66.11189042415847439, 5.000000000000000000 ) ) ;
#560 = DIRECTION ( 'NONE',  ( 0.000000000000000000, 0.000000000000000000, -1.000000000000000000 ) ) ;
#561 = AXIS2_PLACEMENT_3D ( 'NONE', #495, #378, #287 ) ;
#562 = ADVANCED_FACE ( 'NONE', ( #902, #471 ), #780, .F. ) ;
#563 = CARTESIAN_POINT ( 'NONE',  ( 5.084720362404981486, 48.57105386180391093, 5.000000000000000000 ) ) ;
#564 = VECTOR ( 'NONE', #1161, 1000.000000000000000 ) ;
#565 = CARTESIAN_POINT ( 'NONE',  ( 60.00000000000000000, 102.5710538618021275, 5.000000000000000000 ) ) ;
#566 = ORIENTED_EDGE ( 'NONE', *, *, #1264, .F. ) ;
#567 =( NAMED_UNIT ( * ) SI_UNIT ( $, .STERADIAN. ) SOLID_ANGLE_UNIT ( ) );
#568 = DIRECTION ( 'NONE',  ( -1.000000000000000000, 0.000000000000000000, 0.000000000000000000 ) ) ;
#569 = FACE_OUTER_BOUND ( 'NONE', #380, .T. ) ;
#570 = CARTESIAN_POINT ( 'NONE',  ( 5.084720362404981486, 48.57105386180391093, 7.000000000000000000 ) ) ;
#571 = PRODUCT_DEFINITION_CONTEXT ( 'detailed design', #693, 'design' ) ;
#572 = PRODUCT_RELATED_PRODUCT_CATEGORY ( 'part', '', ( #1016 ) ) ;
#573 = DIRECTION ( 'NONE',  ( 1.000000000000000000, 0.000000000000000000, 0.000000000000000000 ) ) ;
#574 = VERTEX_POINT ( 'NONE', #236 ) ;
#575 = CARTESIAN_POINT ( 'NONE',  ( 68.08472036240131331, 90.51409891124708906, 5.000000000000000000 ) ) ;
#576 = EDGE_LOOP ( 'NONE', ( #722 ) ) ;
#577 = CARTESIAN_POINT ( 'NONE',  ( 63.58472036240129910, 86.01409891124708906, 2.000000000000000000 ) ) ;
#578 = DIRECTION ( 'NONE',  ( 0.000000000000000000, 1.000000000000000000, 0.000000000000000000 ) ) ;
#579 = ORIENTED_EDGE ( 'NONE', *, *, #393, .T. ) ;
#580 = DIRECTION ( 'NONE',  ( 1.000000000000000000, 0.000000000000000000, 0.000000000000000000 ) ) ;
#581 = EDGE_CURVE ( 'NONE', #852, #131, #1233, .T. ) ;
#582 = LINE ( 'NONE', #774, #120 ) ;
#583 = ORIENTED_EDGE ( 'NONE', *, *, #661, .F. ) ;
#584 = ORIENTED_EDGE ( 'NONE', *, *, #581, .T. ) ;
#585 = DIRECTION ( 'NONE',  ( 1.000000000000000000, 0.000000000000000000, 0.000000000000000000 ) ) ;
#586 = CARTESIAN_POINT ( 'NONE',  ( 28.58472036240130620, 86.01409891124708906, 2.000000000000000000 ) ) ;
#587 = VECTOR ( 'NONE', #1118, 1000.000000000000000 ) ;
#588 = ORIENTED_EDGE ( 'NONE', *, *, #854, .T. ) ;
#589 = VECTOR ( 'NONE', #1253, 1000.000000000000000 ) ;
#590 = CARTESIAN_POINT ( 'NONE',  ( 5.084720362404981486, 48.57105386180391093, 7.000000000000000000 ) ) ;
#591 = ADVANCED_FACE ( 'NONE', ( #827 ), #1020, .F. ) ;
#592 = DIRECTION ( 'NONE',  ( -0.000000000000000000, -0.000000000000000000, -1.000000000000000000 ) ) ;
#593 = ORIENTED_EDGE ( 'NONE', *, *, #601, .T. ) ;
#594 = PLANE ( 'NONE',  #249 ) ;
#595 = CYLINDRICAL_SURFACE ( 'NONE', #1085, 2.500000000000015987 ) ;
#596 = CARTESIAN_POINT ( 'NONE',  ( 2.484720362404980509, 8.571053861803907381, 4.500000000000000000 ) ) ;
#597 = CARTESIAN_POINT ( 'NONE',  ( 5.084720362404981486, 8.571053861803907381, 4.500000000000000000 ) ) ;
#598 = EDGE_LOOP ( 'NONE', ( #962, #165, #239, #104 ) ) ;
#599 = PLANE ( 'NONE',  #1154 ) ;
#600 = EDGE_LOOP ( 'NONE', ( #1026 ) ) ;
#601 = EDGE_CURVE ( 'NONE', #1297, #1297, #696, .T. ) ;
#602 = DIRECTION ( 'NONE',  ( 0.000000000000000000, 0.000000000000000000, 1.000000000000000000 ) ) ;
#603 = ORIENTED_EDGE ( 'NONE', *, *, #173, .T. ) ;
#604 = ORIENTED_EDGE ( 'NONE', *, *, #934, .T. ) ;
#605 = VERTEX_POINT ( 'NONE', #85 ) ;
#606 = CARTESIAN_POINT ( 'NONE',  ( 75.08472036240129910, 7.347880794884118356E-15, 0.000000000000000000 ) ) ;
#607 = ORIENTED_EDGE ( 'NONE', *, *, #235, .T. ) ;
#608 = DIRECTION ( 'NONE',  ( -1.000000000000000000, 0.000000000000000000, 0.000000000000000000 ) ) ;
#609 = FACE_OUTER_BOUND ( 'NONE', #650, .T. ) ;
#610 = ADVANCED_FACE ( 'NONE', ( #1136, #113 ), #1228, .T. ) ;
#611 = VECTOR ( 'NONE', #109, 1000.000000000000000 ) ;
#612 = VERTEX_POINT ( 'NONE', #1312 ) ;
#613 = VECTOR ( 'NONE', #1218, 1000.000000000000000 ) ;
#614 = AXIS2_PLACEMENT_3D ( 'NONE', #29, #335, #1132 ) ;
#615 = CARTESIAN_POINT ( 'NONE',  ( 5.084720362404981486, 8.571053861803907381, 7.000000000000000000 ) ) ;
#616 = ORIENTED_EDGE ( 'NONE', *, *, #411, .T. ) ;
#617 = LINE ( 'NONE', #1008, #546 ) ;
#618 = CARTESIAN_POINT ( 'NONE',  ( 24.08472036240129910, 90.51409891124708906, 12.00000000000000000 ) ) ;
#619 = VERTEX_POINT ( 'NONE', #1004 ) ;
#620 = DIRECTION ( 'NONE',  ( 8.673617379884036705E-17, 1.000000000000000000, 0.000000000000000000 ) ) ;
#621 = EDGE_LOOP ( 'NONE', ( #244 ) ) ;
#622 = CARTESIAN_POINT ( 'NONE',  ( 28.58472036240130265, 51.01409891124709617, 0.000000000000000000 ) ) ;
#623 = VERTEX_POINT ( 'NONE', #830 ) ;
#624 = DIRECTION ( 'NONE',  ( -1.000000000000000000, 0.000000000000000000, 0.000000000000000000 ) ) ;
#625 = EDGE_CURVE ( 'NONE', #410, #749, #921, .T. ) ;
#626 = ORIENTED_EDGE ( 'NONE', *, *, #879, .T. ) ;
#627 = FACE_OUTER_BOUND ( 'NONE', #176, .T. ) ;
#628 = CARTESIAN_POINT ( 'NONE',  ( 5.084720362404981486, 48.57105386180391093, 7.000000000000000000 ) ) ;
#629 = ORIENTED_EDGE ( 'NONE', *, *, #429, .T. ) ;
#630 = DIRECTION ( 'NONE',  ( -1.000000000000000000, -0.000000000000000000, -0.000000000000000000 ) ) ;
#631 = VECTOR ( 'NONE', #1285, 1000.000000000000000 ) ;
#632 = CARTESIAN_POINT ( 'NONE',  ( 5.084720362404981486, 48.57105386180391093, 0.000000000000000000 ) ) ;
#633 = AXIS2_PLACEMENT_3D ( 'NONE', #427, #434, #237 ) ;
#634 = EDGE_LOOP ( 'NONE', ( #579, #1165, #311, #489 ) ) ;
#635 = CIRCLE ( 'NONE', #1278, 1.286713773507058844 ) ;
#636 = ADVANCED_FACE ( 'NONE', ( #533, #310 ), #1237, .T. ) ;
#637 = DIRECTION ( 'NONE',  ( 0.000000000000000000, 0.000000000000000000, 1.000000000000000000 ) ) ;
#638 = CARTESIAN_POINT ( 'NONE',  ( 5.084720362404981486, 8.571053861803907381, 5.000000000000000000 ) ) ;
#639 = EDGE_LOOP ( 'NONE', ( #966 ) ) ;
#640 = CARTESIAN_POINT ( 'NONE',  ( 28.58472036240130265, 51.01409891124709617, 2.000000000000000000 ) ) ;
#641 = EDGE_CURVE ( 'NONE', #901, #492, #910, .T. ) ;
#642 = CYLINDRICAL_SURFACE ( 'NONE', #699, 2.499999999999998668 ) ;
#643 = EDGE_LOOP ( 'NONE', ( #64 ) ) ;
#644 = PLANE ( 'NONE',  #757 ) ;
#645 = VERTEX_POINT ( 'NONE', #1028 ) ;
#646 = CARTESIAN_POINT ( 'NONE',  ( 5.213676621836000002, 86.11189042415848860, 15.00000000000000355 ) ) ;
#647 = PLANE ( 'NONE',  #824 ) ;
#648 = PLANE ( 'NONE',  #1243 ) ;
#649 = EDGE_CURVE ( 'NONE', #1125, #1125, #8, .T. ) ;
#650 = EDGE_LOOP ( 'NONE', ( #604 ) ) ;
#651 = CIRCLE ( 'NONE', #633, 1.600000000000002531 ) ;
#652 = DIRECTION ( 'NONE',  ( 1.000000000000000000, 0.000000000000000000, 0.000000000000000000 ) ) ;
#653 = AXIS2_PLACEMENT_3D ( 'NONE', #847, #238, #735 ) ;
#654 = CARTESIAN_POINT ( 'NONE',  ( 5.213676621836000002, 86.11189042415848860, 15.00000000000000355 ) ) ;
#655 = FACE_OUTER_BOUND ( 'NONE', #180, .T. ) ;
#656 = ORIENTED_EDGE ( 'NONE', *, *, #551, .F. ) ;
#657 = CARTESIAN_POINT ( 'NONE',  ( 26.08472036240130620, 48.51409891124709617, 0.000000000000000000 ) ) ;
#658 = DIRECTION ( 'NONE',  ( -1.000000000000000000, 0.000000000000000000, 0.000000000000000000 ) ) ;
#659 = DIRECTION ( 'NONE',  ( -1.000000000000000000, 9.912705577010329247E-17, 0.000000000000000000 ) ) ;
#660 = EDGE_LOOP ( 'NONE', ( #285 ) ) ;
#661 = EDGE_CURVE ( 'NONE', #52, #1236, #422, .T. ) ;
#662 = DIRECTION ( 'NONE',  ( 1.000000000000000000, 0.000000000000000000, 0.000000000000000000 ) ) ;
#663 = ORIENTED_EDGE ( 'NONE', *, *, #459, .T. ) ;
#664 = ORIENTED_EDGE ( 'NONE', *, *, #1054, .T. ) ;
#665 = ORIENTED_EDGE ( 'NONE', *, *, #110, .T. ) ;
#666 = FACE_OUTER_BOUND ( 'NONE', #873, .T. ) ;
#667 = EDGE_CURVE ( 'NONE', #394, #394, #753, .T. ) ;
#668 = DIRECTION ( 'NONE',  ( -1.000000000000000000, -0.000000000000000000, -0.000000000000000000 ) ) ;
#669 = AXIS2_PLACEMENT_3D ( 'NONE', #615, #1115, #1006 ) ;
#670 = EDGE_CURVE ( 'NONE', #749, #1286, #932, .T. ) ;
#671 = CIRCLE ( 'NONE', #1023, 2.600000000000000533 ) ;
#672 = EDGE_LOOP ( 'NONE', ( #1128 ) ) ;
#673 = VERTEX_POINT ( 'NONE', #618 ) ;
#674 = CARTESIAN_POINT ( 'NONE',  ( 5.213676621836000002, 66.11189042415847439, 15.00000000000000355 ) ) ;
#675 = CARTESIAN_POINT ( 'NONE',  ( 63.58472036240128489, 51.01409891124709617, 0.000000000000000000 ) ) ;
#676 = CARTESIAN_POINT ( 'NONE',  ( 18.18146149428434555, 28.76206057038385566, 17.00000000000000000 ) ) ;
#677 = CARTESIAN_POINT ( 'NONE',  ( 63.58472036240128489, 51.01409891124709617, 2.000000000000000000 ) ) ;
#678 = CARTESIAN_POINT ( 'NONE',  ( 65.09146149428434569, 28.76206057038385566, 17.00000000000000000 ) ) ;
#679 = EDGE_CURVE ( 'NONE', #923, #923, #1131, .T. ) ;
#680 = ORIENTED_EDGE ( 'NONE', *, *, #274, .F. ) ;
#681 = CARTESIAN_POINT ( 'NONE',  ( 5.084720362404981486, 48.57105386180391093, 7.000000000000000000 ) ) ;
#682 = SURFACE_STYLE_USAGE ( .BOTH. , #499 ) ;
#683 = ORIENTED_EDGE ( 'NONE', *, *, #59, .T. ) ;
#684 = DIRECTION ( 'NONE',  ( -1.000000000000000000, 0.000000000000000000, 0.000000000000000000 ) ) ;
#685 = DIRECTION ( 'NONE',  ( 8.673617379884036705E-17, -1.000000000000000000, 0.000000000000000000 ) ) ;
#686 = ORIENTED_EDGE ( 'NONE', *, *, #129, .T. ) ;
#687 = ADVANCED_FACE ( 'NONE', ( #821, #927 ), #1310, .T. ) ;
#688 = DIRECTION ( 'NONE',  ( 0.000000000000000000, 0.000000000000000000, 1.000000000000000000 ) ) ;
#689 = PRESENTATION_STYLE_ASSIGNMENT (( #682 ) ) ;
#690 = ORIENTED_EDGE ( 'NONE', *, *, #625, .F. ) ;
#691 = DIRECTION ( 'NONE',  ( -0.000000000000000000, 0.000000000000000000, 1.000000000000000000 ) ) ;
#692 = ORIENTED_EDGE ( 'NONE', *, *, #1027, .T. ) ;
#693 = APPLICATION_CONTEXT ( 'automotive_design' ) ;
#694 = AXIS2_PLACEMENT_3D ( 'NONE', #646, #545, #1251 ) ;
#695 = DIRECTION ( 'NONE',  ( 1.000000000000000000, 0.000000000000000000, -0.000000000000000000 ) ) ;
#696 = CIRCLE ( 'NONE', #1021, 1.525854832872129085 ) ;
#697 = DIRECTION ( 'NONE',  ( 0.000000000000000000, 0.000000000000000000, 1.000000000000000000 ) ) ;
#698 = ORIENTED_EDGE ( 'NONE', *, *, #405, .F. ) ;
#699 = AXIS2_PLACEMENT_3D ( 'NONE', #1035, #1241, #1234 ) ;
#700 = EDGE_LOOP ( 'NONE', ( #698 ) ) ;
#701 = DIRECTION ( 'NONE',  ( -1.224646799147353207E-16, 1.000000000000000000, 0.000000000000000000 ) ) ;
#702 = DIRECTION ( 'NONE',  ( 3.965082230804131699E-16, 1.000000000000000000, 0.000000000000000000 ) ) ;
#703 = ORIENTED_EDGE ( 'NONE', *, *, #1205, .T. ) ;
#704 = VERTEX_POINT ( 'NONE', #1217 ) ;
#705 = LINE ( 'NONE', #86, #631 ) ;
#706 = ORIENTED_EDGE ( 'NONE', *, *, #581, .F. ) ;
#707 = ORIENTED_EDGE ( 'NONE', *, *, #1135, .F. ) ;
#708 = DIRECTION ( 'NONE',  ( 1.000000000000000000, 0.000000000000000000, 0.000000000000000000 ) ) ;
#709 = FACE_OUTER_BOUND ( 'NONE', #1070, .T. ) ;
#710 = VERTEX_POINT ( 'NONE', #1104 ) ;
#711 = PRODUCT_DEFINITION_SHAPE ( 'NONE', 'NONE',  #811 ) ;
#712 = DIRECTION ( 'NONE',  ( 0.000000000000000000, -0.000000000000000000, 1.000000000000000000 ) ) ;
#713 = EDGE_LOOP ( 'NONE', ( #1268, #629, #127, #626 ) ) ;
#714 = DIRECTION ( 'NONE',  ( 0.000000000000000000, 0.000000000000000000, 1.000000000000000000 ) ) ;
#715 = CARTESIAN_POINT ( 'NONE',  ( 68.08472036240131331, 90.51409891124708906, 12.00000000000000000 ) ) ;
#716 = AXIS2_PLACEMENT_3D ( 'NONE', #597, #898, #1299 ) ;
#717 = CARTESIAN_POINT ( 'NONE',  ( 19.46817526779140550, 28.76206057038385566, 5.000000000000000888 ) ) ;
#718 = AXIS2_PLACEMENT_3D ( 'NONE', #440, #338, #942 ) ;
#719 = DIRECTION ( 'NONE',  ( -0.000000000000000000, 1.000000000000000000, 0.000000000000000000 ) ) ;
#720 = ORIENTED_EDGE ( 'NONE', *, *, #977, .T. ) ;
#721 = DIRECTION ( 'NONE',  ( 1.000000000000000000, 0.000000000000000000, 0.000000000000000000 ) ) ;
#722 = ORIENTED_EDGE ( 'NONE', *, *, #43, .T. ) ;
#723 = VERTEX_POINT ( 'NONE', #1119 ) ;
#724 = EDGE_CURVE ( 'NONE', #1202, #1078, #734, .T. ) ;
#725 = FACE_OUTER_BOUND ( 'NONE', #1226, .T. ) ;
#726 = EDGE_LOOP ( 'NONE', ( #764 ) ) ;
#727 = DIRECTION ( 'NONE',  ( 9.912705577010329247E-17, 1.000000000000000000, 0.000000000000000000 ) ) ;
#728 = CARTESIAN_POINT ( 'NONE',  ( 66.08472036240128489, 88.51409891124708906, 12.00000000000000000 ) ) ;
#729 = VERTEX_POINT ( 'NONE', #596 ) ;
#730 = EDGE_CURVE ( 'NONE', #1114, #1114, #209, .T. ) ;
#731 = DIRECTION ( 'NONE',  ( 1.000000000000000000, 0.000000000000000000, 0.000000000000000000 ) ) ;
#732 = ORIENTED_EDGE ( 'NONE', *, *, #730, .F. ) ;
#733 = FACE_OUTER_BOUND ( 'NONE', #418, .T. ) ;
#734 = LINE ( 'NONE', #1129, #1174 ) ;
#735 = DIRECTION ( 'NONE',  ( 1.000000000000000000, 0.000000000000000000, 0.000000000000000000 ) ) ;
#736 = CLOSED_SHELL ( 'NONE', ( #843, #1258, #768, #1005, #951, #815, #995, #961, #1185, #349, #252, #591, #828, #1193, #1213, #494, #264, #541, #486, #396, #1011, #941, #534, #1149, #309, #1112, #946, #687, #562, #968, #467, #505, #9, #896, #1288, #187, #135, #1230, #1049, #152, #69, #201, #1315, #164, #1101, #24, #448, #610, #787, #337, #636, #436, #1298, #1072 ) ) ;
#737 = ORIENTED_EDGE ( 'NONE', *, *, #679, .F. ) ;
#738 = VECTOR ( 'NONE', #786, 1000.000000000000000 ) ;
#739 = EDGE_CURVE ( 'NONE', #804, #804, #1044, .T. ) ;
#740 = DIRECTION ( 'NONE',  ( 0.000000000000000000, -0.000000000000000000, -1.000000000000000000 ) ) ;
#741 = DIRECTION ( 'NONE',  ( 1.000000000000000000, 0.000000000000000000, 0.000000000000000000 ) ) ;
#742 = EDGE_LOOP ( 'NONE', ( #1171 ) ) ;
#743 = FACE_OUTER_BOUND ( 'NONE', #172, .T. ) ;
#744 = EDGE_LOOP ( 'NONE', ( #1250 ) ) ;
#745 = FACE_BOUND ( 'NONE', #1180, .T. ) ;
#746 = ORIENTED_EDGE ( 'NONE', *, *, #1167, .F. ) ;
#747 = LINE ( 'NONE', #1144, #1240 ) ;
#748 = CARTESIAN_POINT ( 'NONE',  ( 68.08472036240131331, 46.51409891124709617, 5.000000000000000000 ) ) ;
#749 = VERTEX_POINT ( 'NONE', #412 ) ;
#750 = LINE ( 'NONE', #958, #589 ) ;
#751 = CARTESIAN_POINT ( 'NONE',  ( 63.58472036240129910, 86.01409891124708906, 0.000000000000000000 ) ) ;
#752 = VERTEX_POINT ( 'NONE', #455 ) ;
#753 = CIRCLE ( 'NONE', #957, 2.599999999999999201 ) ;
#754 = LINE ( 'NONE', #657, #1195 ) ;
#755 = AXIS2_PLACEMENT_3D ( 'NONE', #449, #352, #662 ) ;
#756 = FACE_BOUND ( 'NONE', #364, .T. ) ;
#757 = AXIS2_PLACEMENT_3D ( 'NONE', #137, #245, #1043 ) ;
#758 = CARTESIAN_POINT ( 'NONE',  ( 5.084720362404981486, 48.57105386180391093, 4.500000000000000000 ) ) ;
#759 = FACE_OUTER_BOUND ( 'NONE', #1164, .T. ) ;
#760 = EDGE_CURVE ( 'NONE', #865, #1124, #750, .T. ) ;
#761 = CYLINDRICAL_SURFACE ( 'NONE', #293, 1.550000000000000933 ) ;
#762 = DIRECTION ( 'NONE',  ( 1.000000000000000000, 0.000000000000000000, 0.000000000000000000 ) ) ;
#763 = CARTESIAN_POINT ( 'NONE',  ( 0.000000000000000000, 102.5710538618021275, 5.000000000000000000 ) ) ;
#764 = ORIENTED_EDGE ( 'NONE', *, *, #1282, .F. ) ;
#765 = ORIENTED_EDGE ( 'NONE', *, *, #1042, .F. ) ;
#766 = VERTEX_POINT ( 'NONE', #1269 ) ;
#767 = LINE ( 'NONE', #58, #414 ) ;
#768 = ADVANCED_FACE ( 'NONE', ( #26, #547 ), #761, .F. ) ;
#769 = FACE_BOUND ( 'NONE', #997, .T. ) ;
#770 = DIRECTION ( 'NONE',  ( -3.965082230804131699E-16, -1.000000000000000000, -0.000000000000000000 ) ) ;
#771 = CARTESIAN_POINT ( 'NONE',  ( 65.09146149428434569, 28.76206057038385566, 17.00000000000000000 ) ) ;
#772 = EDGE_LOOP ( 'NONE', ( #1293, #1076, #813, #301 ) ) ;
#773 = DIRECTION ( 'NONE',  ( 1.000000000000000000, 0.000000000000000000, -0.000000000000000000 ) ) ;
#774 = CARTESIAN_POINT ( 'NONE',  ( 0.000000000000000000, 0.000000000000000000, 0.000000000000000000 ) ) ;
#775 = ORIENTED_EDGE ( 'NONE', *, *, #147, .T. ) ;
#776 = VECTOR ( 'NONE', #4, 1000.000000000000000 ) ;
#777 = DIRECTION ( 'NONE',  ( 1.000000000000000000, 0.000000000000000000, 0.000000000000000000 ) ) ;
#778 = EDGE_CURVE ( 'NONE', #1265, #554, #538, .T. ) ;
#779 = AXIS2_PLACEMENT_3D ( 'NONE', #677, #788, #702 ) ;
#780 = CYLINDRICAL_SURFACE ( 'NONE', #314, 1.125874551818673019 ) ;
#781 = CIRCLE ( 'NONE', #755, 1.600000000000000755 ) ;
#782 = EDGE_LOOP ( 'NONE', ( #1057 ) ) ;
#783 = EDGE_LOOP ( 'NONE', ( #737 ) ) ;
#784 = VERTEX_POINT ( 'NONE', #897 ) ;
#785 = ORIENTED_EDGE ( 'NONE', *, *, #129, .F. ) ;
#786 = DIRECTION ( 'NONE',  ( 0.000000000000000000, 1.000000000000000000, -0.000000000000000000 ) ) ;
#787 = ADVANCED_FACE ( 'NONE', ( #263, #1046 ), #936, .F. ) ;
#788 = DIRECTION ( 'NONE',  ( 1.000000000000000000, -3.965082230804131699E-16, 0.000000000000000000 ) ) ;
#789 = ORIENTED_EDGE ( 'NONE', *, *, #220, .T. ) ;
#790 = CARTESIAN_POINT ( 'NONE',  ( 24.08472036240129910, 90.51409891124708906, 5.000000000000000000 ) ) ;
#791 = FACE_OUTER_BOUND ( 'NONE', #480, .T. ) ;
#792 = EDGE_LOOP ( 'NONE', ( #899 ) ) ;
#793 = DIRECTION ( 'NONE',  ( 1.000000000000000000, 0.000000000000000000, 0.000000000000000000 ) ) ;
#794 = FACE_OUTER_BOUND ( 'NONE', #634, .T. ) ;
#795 = CARTESIAN_POINT ( 'NONE',  ( 24.08472036240129910, 90.51409891124708906, 12.00000000000000000 ) ) ;
#796 = DIRECTION ( 'NONE',  ( 0.000000000000000000, 0.000000000000000000, 1.000000000000000000 ) ) ;
#797 = DIRECTION ( 'NONE',  ( -1.000000000000000000, 0.000000000000000000, 0.000000000000000000 ) ) ;
#798 = DIRECTION ( 'NONE',  ( 1.000000000000000000, 0.000000000000000000, -0.000000000000000000 ) ) ;
#799 = EDGE_LOOP ( 'NONE', ( #144 ) ) ;
#800 = CIRCLE ( 'NONE', #421, 3.750000000000003553 ) ;
#801 = PRESENTATION_LAYER_ASSIGNMENT (  '', '', ( #922 ) ) ;
#802 = FACE_BOUND ( 'NONE', #1139, .T. ) ;
#803 = ORIENTED_EDGE ( 'NONE', *, *, #528, .T. ) ;
#804 = VERTEX_POINT ( 'NONE', #403 ) ;
#805 = EDGE_CURVE ( 'NONE', #852, #192, #42, .T. ) ;
#806 = CARTESIAN_POINT ( 'NONE',  ( 66.08472036240129910, 88.51409891124708906, 0.000000000000000000 ) ) ;
#807 = ORIENTED_EDGE ( 'NONE', *, *, #147, .F. ) ;
#808 = PLANE ( 'NONE',  #1087 ) ;
#809 = FACE_OUTER_BOUND ( 'NONE', #267, .T. ) ;
#810 = CARTESIAN_POINT ( 'NONE',  ( 6.634720362404982197, 8.571053861803907381, 7.000000000000000000 ) ) ;
#811 = PRODUCT_DEFINITION ( 'UNKNOWN', '', #461, #571 ) ;
#812 = LINE ( 'NONE', #1211, #611 ) ;
#813 = ORIENTED_EDGE ( 'NONE', *, *, #820, .F. ) ;
#814 = FACE_OUTER_BOUND ( 'NONE', #772, .T. ) ;
#815 = ADVANCED_FACE ( 'NONE', ( #756, #1031, #1169, #132 ), #1039, .F. ) ;
#816 = DIRECTION ( 'NONE',  ( 0.000000000000000000, 0.000000000000000000, 1.000000000000000000 ) ) ;
#817 = VERTEX_POINT ( 'NONE', #516 ) ;
#818 = PLANE ( 'NONE',  #27 ) ;
#819 = DIRECTION ( 'NONE',  ( 0.000000000000000000, 1.000000000000000000, 0.000000000000000000 ) ) ;
#820 = EDGE_CURVE ( 'NONE', #74, #1265, #35, .T. ) ;
#821 = FACE_OUTER_BOUND ( 'NONE', #262, .T. ) ;
#822 = VECTOR ( 'NONE', #1221, 1000.000000000000000 ) ;
#823 = VERTEX_POINT ( 'NONE', #312 ) ;
#824 = AXIS2_PLACEMENT_3D ( 'NONE', #253, #359, #860 ) ;
#825 = CARTESIAN_POINT ( 'NONE',  ( 24.08472036240129910, 90.51409891124708906, 12.00000000000000000 ) ) ;
#826 = EDGE_LOOP ( 'NONE', ( #92 ) ) ;
#827 = FACE_OUTER_BOUND ( 'NONE', #887, .T. ) ;
#828 = ADVANCED_FACE ( 'NONE', ( #769, #1266 ), #445, .F. ) ;
#829 = ORIENTED_EDGE ( 'NONE', *, *, #255, .F. ) ;
#830 = CARTESIAN_POINT ( 'NONE',  ( 20.68146149428434555, 28.76206057038385566, 5.000000000000000000 ) ) ;
#831 = LINE ( 'NONE', #825, #613 ) ;
#832 = EDGE_LOOP ( 'NONE', ( #500 ) ) ;
#833 = EDGE_LOOP ( 'NONE', ( #33 ) ) ;
#834 = CARTESIAN_POINT ( 'NONE',  ( 28.58472036240130265, 51.01409891124709617, 2.000000000000000000 ) ) ;
#835 = EDGE_CURVE ( 'NONE', #954, #645, #145, .T. ) ;
#836 = DIRECTION ( 'NONE',  ( -0.000000000000000000, 0.000000000000000000, 1.000000000000000000 ) ) ;
#837 = VERTEX_POINT ( 'NONE', #846 ) ;
#838 = CARTESIAN_POINT ( 'NONE',  ( 26.08472036240130620, 48.51409891124709617, 0.000000000000000000 ) ) ;
#839 = DIRECTION ( 'NONE',  ( 0.000000000000000000, -0.000000000000000000, -1.000000000000000000 ) ) ;
#840 = CIRCLE ( 'NONE', #454, 1.286713773507058844 ) ;
#841 = CARTESIAN_POINT ( 'NONE',  ( 63.58472036240128489, 51.01409891124709617, 2.000000000000000000 ) ) ;
#842 = AXIS2_PLACEMENT_3D ( 'NONE', #212, #224, #529 ) ;
#843 = ADVANCED_FACE ( 'NONE', ( #1050, #247, #552, #947, #555, #1247, #745, #140, #869, #952 ), #647, .T. ) ;
#844 = EDGE_LOOP ( 'NONE', ( #1206 ) ) ;
#845 = VECTOR ( 'NONE', #462, 1000.000000000000000 ) ;
#846 = CARTESIAN_POINT ( 'NONE',  ( 24.08472036240129910, 90.51409891124708906, 5.000000000000000000 ) ) ;
#847 = CARTESIAN_POINT ( 'NONE',  ( 65.09146149428433148, 5.502060570383854099, 17.00000000000000000 ) ) ;
#848 = EDGE_LOOP ( 'NONE', ( #117, #1168, #355, #151 ) ) ;
#849 = VERTEX_POINT ( 'NONE', #38 ) ;
#850 = DIRECTION ( 'NONE',  ( 0.000000000000000000, 0.000000000000000000, -1.000000000000000000 ) ) ;
#851 = DIRECTION ( 'NONE',  ( -0.000000000000000000, -0.000000000000000000, -1.000000000000000000 ) ) ;
#852 = VERTEX_POINT ( 'NONE', #1261 ) ;
#853 = CARTESIAN_POINT ( 'NONE',  ( 5.084720362404981486, 8.571053861803907381, 5.000000000000000000 ) ) ;
#854 = EDGE_CURVE ( 'NONE', #296, #296, #781, .T. ) ;
#855 = CARTESIAN_POINT ( 'NONE',  ( 26.08472036240130265, 88.51409891124708906, 0.000000000000000000 ) ) ;
#856 = ORIENTED_EDGE ( 'NONE', *, *, #906, .T. ) ;
#857 = AXIS2_PLACEMENT_3D ( 'NONE', #272, #382, #984 ) ;
#858 = DIRECTION ( 'NONE',  ( 0.000000000000000000, 0.000000000000000000, 1.000000000000000000 ) ) ;
#859 = AXIS2_PLACEMENT_3D ( 'NONE', #106, #740, #515 ) ;
#860 = DIRECTION ( 'NONE',  ( 1.000000000000000000, 0.000000000000000000, 0.000000000000000000 ) ) ;
#861 = AXIS2_PLACEMENT_3D ( 'NONE', #1186, #283, #568 ) ;
#862 = DIRECTION ( 'NONE',  ( 0.000000000000000000, -0.000000000000000000, 1.000000000000000000 ) ) ;
#863 = EDGE_CURVE ( 'NONE', #605, #605, #671, .T. ) ;
#864 = LINE ( 'NONE', #763, #1150 ) ;
#865 = VERTEX_POINT ( 'NONE', #577 ) ;
#866 = DIRECTION ( 'NONE',  ( 1.000000000000000000, 0.000000000000000000, 0.000000000000000000 ) ) ;
#867 = EDGE_CURVE ( 'NONE', #37, #537, #894, .T. ) ;
#868 = ORIENTED_EDGE ( 'NONE', *, *, #444, .T. ) ;
#869 = FACE_BOUND ( 'NONE', #1219, .T. ) ;
#870 = DIRECTION ( 'NONE',  ( 1.000000000000000000, 0.000000000000000000, 0.000000000000000000 ) ) ;
#871 = DIRECTION ( 'NONE',  ( 0.000000000000000000, 0.000000000000000000, 1.000000000000000000 ) ) ;
#872 = EDGE_CURVE ( 'NONE', #504, #504, #316, .T. ) ;
#873 = EDGE_LOOP ( 'NONE', ( #720 ) ) ;
#874 = DIRECTION ( 'NONE',  ( 0.000000000000000000, 0.000000000000000000, 1.000000000000000000 ) ) ;
#875 = CARTESIAN_POINT ( 'NONE',  ( 75.08472036240129910, 7.347880794884118356E-15, 5.000000000000000000 ) ) ;
#876 = CARTESIAN_POINT ( 'NONE',  ( 5.084720362404981486, 8.571053861803907381, 4.500000000000000000 ) ) ;
#877 = DIRECTION ( 'NONE',  ( 0.000000000000000000, 0.000000000000000000, 1.000000000000000000 ) ) ;
#878 = DIRECTION ( 'NONE',  ( 1.000000000000000000, 0.000000000000000000, -0.000000000000000000 ) ) ;
#879 = EDGE_CURVE ( 'NONE', #1286, #849, #1207, .T. ) ;
#880 = CARTESIAN_POINT ( 'NONE',  ( 5.213676621836000002, 66.11189042415847439, 15.00000000000000355 ) ) ;
#881 = CIRCLE ( 'NONE', #332, 2.500000000000000444 ) ;
#882 = AXIS2_PLACEMENT_3D ( 'NONE', #925, #1313, #321 ) ;
#883 = CARTESIAN_POINT ( 'NONE',  ( 0.000000000000000000, 0.000000000000000000, 5.000000000000000000 ) ) ;
#884 = AXIS2_PLACEMENT_3D ( 'NONE', #1047, #23, #146 ) ;
#885 = DIRECTION ( 'NONE',  ( -1.000000000000000000, 0.000000000000000000, 0.000000000000000000 ) ) ;
#886 = AXIS2_PLACEMENT_3D ( 'NONE', #391, #877, #708 ) ;
#887 = EDGE_LOOP ( 'NONE', ( #1052, #1134, #1000, #76 ) ) ;
#888 = DIRECTION ( 'NONE',  ( -0.000000000000000000, -0.000000000000000000, -1.000000000000000000 ) ) ;
#889 = ORIENTED_EDGE ( 'NONE', *, *, #91, .T. ) ;
#890 = CARTESIAN_POINT ( 'NONE',  ( 18.18146149428434555, 5.502060570383854099, 5.000000000000000888 ) ) ;
#891 = DIRECTION ( 'NONE',  ( 0.000000000000000000, -0.000000000000000000, -1.000000000000000000 ) ) ;
#892 = CARTESIAN_POINT ( 'NONE',  ( 0.000000000000000000, 0.000000000000000000, 5.000000000000000000 ) ) ;
#893 = FACE_OUTER_BOUND ( 'NONE', #1232, .T. ) ;
#894 = LINE ( 'NONE', #979, #526 ) ;
#895 = PLANE ( 'NONE',  #248 ) ;
#896 = ADVANCED_FACE ( 'NONE', ( #569 ), #54, .T. ) ;
#897 = CARTESIAN_POINT ( 'NONE',  ( 7.713676621836000002, 66.11189042415847439, 15.00000000000000355 ) ) ;
#898 = DIRECTION ( 'NONE',  ( 0.000000000000000000, 0.000000000000000000, -1.000000000000000000 ) ) ;
#899 = ORIENTED_EDGE ( 'NONE', *, *, #405, .T. ) ;
#900 = DIRECTION ( 'NONE',  ( 0.000000000000000000, 0.000000000000000000, 1.000000000000000000 ) ) ;
#901 = VERTEX_POINT ( 'NONE', #286 ) ;
#902 = FACE_OUTER_BOUND ( 'NONE', #826, .T. ) ;
#903 = AXIS2_PLACEMENT_3D ( 'NONE', #570, #55, #340 ) ;
#904 = ORIENTED_EDGE ( 'NONE', *, *, #51, .F. ) ;
#905 = VECTOR ( 'NONE', #630, 1000.000000000000000 ) ;
#906 = EDGE_CURVE ( 'NONE', #198, #198, #924, .T. ) ;
#907 = VERTEX_POINT ( 'NONE', #1307 ) ;
#908 = FILL_AREA_STYLE_COLOUR ( '', #96 ) ;
#909 = VERTEX_POINT ( 'NONE', #1062 ) ;
#910 = LINE ( 'NONE', #622, #479 ) ;
#911 = VERTEX_POINT ( 'NONE', #917 ) ;
#912 = CARTESIAN_POINT ( 'NONE',  ( 24.08472036240130620, 46.51409891124709617, 12.00000000000000000 ) ) ;
#913 = EDGE_CURVE ( 'NONE', #1067, #940, #1086, .T. ) ;
#914 = ORIENTED_EDGE ( 'NONE', *, *, #357, .T. ) ;
#915 = CARTESIAN_POINT ( 'NONE',  ( 75.08472036240129910, 7.347880794884118356E-15, 0.000000000000000000 ) ) ;
#916 = DIRECTION ( 'NONE',  ( 0.000000000000000000, -0.000000000000000000, -1.000000000000000000 ) ) ;
#917 = CARTESIAN_POINT ( 'NONE',  ( 3.534720362404979888, 8.571053861803907381, 4.500000000000000000 ) ) ;
#918 = CARTESIAN_POINT ( 'NONE',  ( 66.08472036240129910, 88.51409891124708906, 0.000000000000000000 ) ) ;
#919 = EDGE_LOOP ( 'NONE', ( #1065 ) ) ;
#920 = EDGE_CURVE ( 'NONE', #907, #907, #1133, .T. ) ;
#921 = LINE ( 'NONE', #432, #158 ) ;
#922 = STYLED_ITEM ( 'NONE', ( #689 ), #197 ) ;
#923 = VERTEX_POINT ( 'NONE', #498 ) ;
#924 = CIRCLE ( 'NONE', #457, 2.500000000000015987 ) ;
#925 = CARTESIAN_POINT ( 'NONE',  ( 18.18146149428434555, 5.502060570383854099, 17.00000000000000000 ) ) ;
#926 = ORIENTED_EDGE ( 'NONE', *, *, #760, .F. ) ;
#927 = FACE_OUTER_BOUND ( 'NONE', #443, .T. ) ;
#928 = DIRECTION ( 'NONE',  ( -1.000000000000000000, 0.000000000000000000, 0.000000000000000000 ) ) ;
#929 = DIRECTION ( 'NONE',  ( 0.000000000000000000, -0.000000000000000000, 1.000000000000000000 ) ) ;
#930 = EDGE_LOOP ( 'NONE', ( #785 ) ) ;
#931 = PLANE ( 'NONE',  #123 ) ;
#932 = LINE ( 'NONE', #728, #395 ) ;
#933 = CARTESIAN_POINT ( 'NONE',  ( 28.58472036240130265, 51.01409891124709617, 2.000000000000000000 ) ) ;
#934 = EDGE_CURVE ( 'NONE', #1210, #1210, #30, .T. ) ;
#935 = ORIENTED_EDGE ( 'NONE', *, *, #496, .T. ) ;
#936 = CYLINDRICAL_SURFACE ( 'NONE', #68, 1.600000000000002087 ) ;
#937 = LINE ( 'NONE', #933, #1176 ) ;
#938 = ORIENTED_EDGE ( 'NONE', *, *, #913, .T. ) ;
#939 = AXIS2_PLACEMENT_3D ( 'NONE', #231, #637, #128 ) ;
#940 = VERTEX_POINT ( 'NONE', #986 ) ;
#941 = ADVANCED_FACE ( 'NONE', ( #177 ), #594, .F. ) ;
#942 = DIRECTION ( 'NONE',  ( 1.000000000000000000, 0.000000000000000000, 0.000000000000000000 ) ) ;
#943 = DIRECTION ( 'NONE',  ( 0.000000000000000000, 0.000000000000000000, -1.000000000000000000 ) ) ;
#944 = ORIENTED_EDGE ( 'NONE', *, *, #1143, .T. ) ;
#945 = FACE_OUTER_BOUND ( 'NONE', #1036, .T. ) ;
#946 = ADVANCED_FACE ( 'NONE', ( #384, #280 ), #294, .T. ) ;
#947 = FACE_BOUND ( 'NONE', #71, .T. ) ;
#948 = CARTESIAN_POINT ( 'NONE',  ( 63.58472036240128489, 51.01409891124709617, 0.000000000000000000 ) ) ;
#949 = DIRECTION ( 'NONE',  ( -0.000000000000000000, 0.000000000000000000, 1.000000000000000000 ) ) ;
#950 = ORIENTED_EDGE ( 'NONE', *, *, #387, .T. ) ;
#951 = ADVANCED_FACE ( 'NONE', ( #993 ), #161, .F. ) ;
#952 = FACE_BOUND ( 'NONE', #600, .T. ) ;
#953 = CARTESIAN_POINT ( 'NONE',  ( 68.08472036240131331, 90.51409891124708906, 12.00000000000000000 ) ) ;
#954 = VERTEX_POINT ( 'NONE', #1093 ) ;
#955 = LINE ( 'NONE', #183, #188 ) ;
#956 = MECHANICAL_DESIGN_GEOMETRIC_PRESENTATION_REPRESENTATION (  '', ( #922 ), #1300 ) ;
#957 = AXIS2_PLACEMENT_3D ( 'NONE', #324, #1214, #217 ) ;
#958 = CARTESIAN_POINT ( 'NONE',  ( 63.58472036240129910, 86.01409891124708906, 2.000000000000000000 ) ) ;
#959 = CARTESIAN_POINT ( 'NONE',  ( 26.08472036240130620, 48.51409891124709617, 12.00000000000000000 ) ) ;
#960 = FACE_OUTER_BOUND ( 'NONE', #460, .T. ) ;
#961 = ADVANCED_FACE ( 'NONE', ( #193 ), #599, .T. ) ;
#962 = ORIENTED_EDGE ( 'NONE', *, *, #330, .F. ) ;
#963 = PLANE ( 'NONE',  #482 ) ;
#964 = DIRECTION ( 'NONE',  ( 0.000000000000000000, 0.000000000000000000, 1.000000000000000000 ) ) ;
#965 = CARTESIAN_POINT ( 'NONE',  ( 0.000000000000000000, 0.000000000000000000, 5.000000000000000000 ) ) ;
#966 = ORIENTED_EDGE ( 'NONE', *, *, #934, .F. ) ;
#967 = CARTESIAN_POINT ( 'NONE',  ( 20.68146149428434555, 5.502060570383854099, 5.000000000000000000 ) ) ;
#968 = ADVANCED_FACE ( 'NONE', ( #61 ), #808, .T. ) ;
#969 = DIRECTION ( 'NONE',  ( 1.000000000000000000, 0.000000000000000000, 0.000000000000000000 ) ) ;
#970 = DIRECTION ( 'NONE',  ( -0.000000000000000000, -0.000000000000000000, -1.000000000000000000 ) ) ;
#971 = LINE ( 'NONE', #883, #738 ) ;
#972 = ORIENTED_EDGE ( 'NONE', *, *, #319, .T. ) ;
#973 = CARTESIAN_POINT ( 'NONE',  ( 65.09146149428433148, 5.502060570383854099, 17.00000000000000000 ) ) ;
#974 = PLANE ( 'NONE',  #366 ) ;
#975 = AXIS2_PLACEMENT_3D ( 'NONE', #134, #943, #40 ) ;
#976 = CYLINDRICAL_SURFACE ( 'NONE', #7, 2.500000000000000888 ) ;
#977 = EDGE_CURVE ( 'NONE', #108, #108, #1304, .T. ) ;
#978 = AXIS2_PLACEMENT_3D ( 'NONE', #318, #407, #100 ) ;
#979 = CARTESIAN_POINT ( 'NONE',  ( 75.08472036240129910, 102.5710538618021275, 0.000000000000000000 ) ) ;
#980 = AXIS2_PLACEMENT_3D ( 'NONE', #256, #850, #149 ) ;
#981 = DIRECTION ( 'NONE',  ( 1.000000000000000000, 0.000000000000000000, 0.000000000000000000 ) ) ;
#982 = CIRCLE ( 'NONE', #118, 1.550000000000003597 ) ;
#983 = DIRECTION ( 'NONE',  ( 1.000000000000000000, 0.000000000000000000, 0.000000000000000000 ) ) ;
#984 = DIRECTION ( 'NONE',  ( -1.000000000000000000, 0.000000000000000000, -0.000000000000000000 ) ) ;
#985 = ORIENTED_EDGE ( 'NONE', *, *, #863, .F. ) ;
#986 = CARTESIAN_POINT ( 'NONE',  ( 66.08472036240128489, 48.51409891124709617, 2.000000000000000000 ) ) ;
#987 = EDGE_CURVE ( 'NONE', #74, #574, #971, .T. ) ;
#988 = CARTESIAN_POINT ( 'NONE',  ( 65.09146149428434569, 28.76206057038385566, 17.00000000000000000 ) ) ;
#989 = ORIENTED_EDGE ( 'NONE', *, *, #102, .F. ) ;
#990 = CARTESIAN_POINT ( 'NONE',  ( 8.834720362404985039, 48.57105386180391093, 5.000000000000000000 ) ) ;
#991 = CARTESIAN_POINT ( 'NONE',  ( 18.18146149428434555, 28.76206057038385566, 17.00000000000000000 ) ) ;
#992 = EDGE_LOOP ( 'NONE', ( #25 ) ) ;
#993 = FACE_OUTER_BOUND ( 'NONE', #1048, .T. ) ;
#994 = SHAPE_DEFINITION_REPRESENTATION ( #711, #81 ) ;
#995 = ADVANCED_FACE ( 'NONE', ( #733 ), #308, .T. ) ;
#996 = CARTESIAN_POINT ( 'NONE',  ( 24.08472036240129910, 90.51409891124708906, 5.000000000000000000 ) ) ;
#997 = EDGE_LOOP ( 'NONE', ( #584, #1296, #87, #703 ) ) ;
#998 = CARTESIAN_POINT ( 'NONE',  ( 7.713676621836000002, 86.11189042415848860, 15.00000000000000355 ) ) ;
#999 = LINE ( 'NONE', #491, #229 ) ;
#1000 = ORIENTED_EDGE ( 'NONE', *, *, #102, .T. ) ;
#1001 = VECTOR ( 'NONE', #95, 1000.000000000000000 ) ;
#1002 = CARTESIAN_POINT ( 'NONE',  ( 18.18146149428434555, 5.502060570383854099, 17.00000000000000000 ) ) ;
#1003 = CIRCLE ( 'NONE', #653, 1.125874551818673019 ) ;
#1004 = CARTESIAN_POINT ( 'NONE',  ( 2.484720362404982730, 48.57105386180391093, 0.000000000000000000 ) ) ;
#1005 = ADVANCED_FACE ( 'NONE', ( #814 ), #931, .T. ) ;
#1006 = DIRECTION ( 'NONE',  ( 1.000000000000000000, 0.000000000000000000, 0.000000000000000000 ) ) ;
#1007 = ORIENTED_EDGE ( 'NONE', *, *, #987, .F. ) ;
#1008 = CARTESIAN_POINT ( 'NONE',  ( 68.08472036240131331, 90.51409891124708906, 12.00000000000000000 ) ) ;
#1009 = DIRECTION ( 'NONE',  ( 1.000000000000000000, 0.000000000000000000, 0.000000000000000000 ) ) ;
#1010 = CARTESIAN_POINT ( 'NONE',  ( 67.59146149428435990, 28.76206057038385566, 17.00000000000000000 ) ) ;
#1011 = ADVANCED_FACE ( 'NONE', ( #514 ), #420, .F. ) ;
#1012 = CARTESIAN_POINT ( 'NONE',  ( 0.000000000000000000, 0.000000000000000000, 5.000000000000000000 ) ) ;
#1013 = ORIENTED_EDGE ( 'NONE', *, *, #362, .T. ) ;
#1014 = DIRECTION ( 'NONE',  ( 9.912705577010329247E-17, 1.000000000000000000, 0.000000000000000000 ) ) ;
#1015 = VERTEX_POINT ( 'NONE', #990 ) ;
#1016 = PRODUCT ( 'RD_TopElectronicsHolder__Default__47763A7E6DD5', 'RD_TopElectronicsHolder__Default__47763A7E6DD5', '', ( #1058 ) ) ;
#1017 = CARTESIAN_POINT ( 'NONE',  ( 26.08472036240130620, 48.51409891124709617, 2.000000000000000000 ) ) ;
#1018 = EDGE_LOOP ( 'NONE', ( #535, #1007, #914, #803 ) ) ;
#1019 = CYLINDRICAL_SURFACE ( 'NONE', #48, 2.599999999999999201 ) ;
#1020 = PLANE ( 'NONE',  #1041 ) ;
#1021 = AXIS2_PLACEMENT_3D ( 'NONE', #520, #1, #1110 ) ;
#1022 = CARTESIAN_POINT ( 'NONE',  ( 66.08472036240129910, 88.51409891124708906, 2.000000000000000000 ) ) ;
#1023 = AXIS2_PLACEMENT_3D ( 'NONE', #1053, #560, #684 ) ;
#1024 = AXIS2_PLACEMENT_3D ( 'NONE', #834, #659, #162 ) ;
#1025 = DIRECTION ( 'NONE',  ( -0.000000000000000000, -0.000000000000000000, -1.000000000000000000 ) ) ;
#1026 = ORIENTED_EDGE ( 'NONE', *, *, #1159, .F. ) ;
#1027 = EDGE_CURVE ( 'NONE', #645, #52, #617, .T. ) ;
#1028 = CARTESIAN_POINT ( 'NONE',  ( 68.08472036240131331, 46.51409891124709617, 12.00000000000000000 ) ) ;
#1029 = CARTESIAN_POINT ( 'NONE',  ( 5.213676621836000002, 66.11189042415847439, 15.00000000000000355 ) ) ;
#1030 = EDGE_LOOP ( 'NONE', ( #509, #938, #603, #1140 ) ) ;
#1031 = FACE_BOUND ( 'NONE', #919, .T. ) ;
#1032 = EDGE_CURVE ( 'NONE', #752, #37, #105, .T. ) ;
#1033 = ORIENTED_EDGE ( 'NONE', *, *, #319, .F. ) ;
#1034 = LINE ( 'NONE', #948, #456 ) ;
#1035 = CARTESIAN_POINT ( 'NONE',  ( 18.18146149428434555, 5.502060570383854099, 17.00000000000000000 ) ) ;
#1036 = EDGE_LOOP ( 'NONE', ( #107 ) ) ;
#1037 = ORIENTED_EDGE ( 'NONE', *, *, #110, .F. ) ;
#1038 = DIRECTION ( 'NONE',  ( 1.000000000000000000, 0.000000000000000000, 0.000000000000000000 ) ) ;
#1039 = PLANE ( 'NONE',  #718 ) ;
#1040 = CARTESIAN_POINT ( 'NONE',  ( 0.000000000000000000, 0.000000000000000000, 5.000000000000000000 ) ) ;
#1041 = AXIS2_PLACEMENT_3D ( 'NONE', #838, #510, #328 ) ;
#1042 = EDGE_CURVE ( 'NONE', #131, #543, #112, .T. ) ;
#1043 = DIRECTION ( 'NONE',  ( 0.000000000000000000, -0.000000000000000000, -1.000000000000000000 ) ) ;
#1044 = CIRCLE ( 'NONE', #859, 1.125874551818673019 ) ;
#1045 = VECTOR ( 'NONE', #356, 1000.000000000000000 ) ;
#1046 = FACE_OUTER_BOUND ( 'NONE', #178, .T. ) ;
#1047 = CARTESIAN_POINT ( 'NONE',  ( 5.084720362404981486, 8.571053861803907381, 4.500000000000000000 ) ) ;
#1048 = EDGE_LOOP ( 'NONE', ( #775, #222, #1263, #433 ) ) ;
#1049 = ADVANCED_FACE ( 'NONE', ( #223, #627 ), #1019, .F. ) ;
#1050 = FACE_BOUND ( 'NONE', #97, .T. ) ;
#1051 = DIRECTION ( 'NONE',  ( 0.000000000000000000, 1.000000000000000000, 0.000000000000000000 ) ) ;
#1052 = ORIENTED_EDGE ( 'NONE', *, *, #173, .F. ) ;
#1053 = CARTESIAN_POINT ( 'NONE',  ( 5.084720362404981486, 8.571053861803907381, 0.000000000000000000 ) ) ;
#1054 = EDGE_CURVE ( 'NONE', #911, #911, #211, .T. ) ;
#1055 = CARTESIAN_POINT ( 'NONE',  ( 24.08472036240130620, 46.51409891124709617, 12.00000000000000000 ) ) ;
#1056 = FACE_OUTER_BOUND ( 'NONE', #1089, .T. ) ;
#1057 = ORIENTED_EDGE ( 'NONE', *, *, #274, .T. ) ;
#1058 = PRODUCT_CONTEXT ( 'NONE', #31, 'mechanical' ) ;
#1059 = VECTOR ( 'NONE', #1204, 1000.000000000000000 ) ;
#1060 = VECTOR ( 'NONE', #17, 1000.000000000000000 ) ;
#1061 = AXIS2_PLACEMENT_3D ( 'NONE', #1227, #210, #1117 ) ;
#1062 = CARTESIAN_POINT ( 'NONE',  ( 26.08472036240130976, 88.51409891124708906, 2.000000000000000000 ) ) ;
#1063 = EDGE_CURVE ( 'NONE', #710, #710, #635, .T. ) ;
#1064 = DIRECTION ( 'NONE',  ( -0.000000000000000000, -0.000000000000000000, -1.000000000000000000 ) ) ;
#1065 = ORIENTED_EDGE ( 'NONE', *, *, #297, .F. ) ;
#1066 = CARTESIAN_POINT ( 'NONE',  ( 65.09146149428433148, 5.502060570383854099, 17.00000000000000000 ) ) ;
#1067 = VERTEX_POINT ( 'NONE', #1022 ) ;
#1068 = FACE_BOUND ( 'NONE', #1248, .T. ) ;
#1069 = CARTESIAN_POINT ( 'NONE',  ( 0.000000000000000000, 0.000000000000000000, 5.000000000000000000 ) ) ;
#1070 = EDGE_LOOP ( 'NONE', ( #686 ) ) ;
#1071 = DIRECTION ( 'NONE',  ( 0.000000000000000000, 0.000000000000000000, 1.000000000000000000 ) ) ;
#1072 = ADVANCED_FACE ( 'NONE', ( #442, #36 ), #348, .T. ) ;
#1073 = ORIENTED_EDGE ( 'NONE', *, *, #1091, .T. ) ;
#1074 = DIRECTION ( 'NONE',  ( 1.000000000000000000, 0.000000000000000000, 0.000000000000000000 ) ) ;
#1075 = CARTESIAN_POINT ( 'NONE',  ( 75.08472036240129910, 102.5710538618021275, 5.000000000000000000 ) ) ;
#1076 = ORIENTED_EDGE ( 'NONE', *, *, #778, .F. ) ;
#1077 = EDGE_LOOP ( 'NONE', ( #377 ) ) ;
#1078 = VERTEX_POINT ( 'NONE', #748 ) ;
#1079 = DIRECTION ( 'NONE',  ( 1.000000000000000000, 0.000000000000000000, 0.000000000000000000 ) ) ;
#1080 = EDGE_CURVE ( 'NONE', #940, #358, #233, .T. ) ;
#1081 =( GEOMETRIC_REPRESENTATION_CONTEXT ( 3 ) GLOBAL_UNCERTAINTY_ASSIGNED_CONTEXT ( ( #133 ) ) GLOBAL_UNIT_ASSIGNED_CONTEXT ( ( #1158, #166, #567 ) ) REPRESENTATION_CONTEXT ( 'NONE', 'WORKASPACE' ) );
#1082 = FACE_BOUND ( 'NONE', #833, .T. ) ;
#1083 = AXIS2_PLACEMENT_3D ( 'NONE', #678, #1064, #155 ) ;
#1084 = EDGE_LOOP ( 'NONE', ( #680 ) ) ;
#1085 = AXIS2_PLACEMENT_3D ( 'NONE', #988, #1184, #170 ) ;
#1086 = LINE ( 'NONE', #390, #419 ) ;
#1087 = AXIS2_PLACEMENT_3D ( 'NONE', #1177, #1281, #273 ) ;
#1088 = DIRECTION ( 'NONE',  ( 1.000000000000000000, 0.000000000000000000, 0.000000000000000000 ) ) ;
#1089 = EDGE_LOOP ( 'NONE', ( #181 ) ) ;
#1090 = FACE_OUTER_BOUND ( 'NONE', #792, .T. ) ;
#1091 = EDGE_CURVE ( 'NONE', #37, #554, #143, .T. ) ;
#1092 = ORIENTED_EDGE ( 'NONE', *, *, #667, .F. ) ;
#1093 = CARTESIAN_POINT ( 'NONE',  ( 24.08472036240130620, 46.51409891124709617, 12.00000000000000000 ) ) ;
#1094 = CARTESIAN_POINT ( 'NONE',  ( 26.08472036240130265, 88.51409891124708906, 12.00000000000000000 ) ) ;
#1095 = ORIENTED_EDGE ( 'NONE', *, *, #805, .T. ) ;
#1096 = CARTESIAN_POINT ( 'NONE',  ( 0.000000000000000000, 0.000000000000000000, 5.000000000000000000 ) ) ;
#1097 = CARTESIAN_POINT ( 'NONE',  ( 19.70731632715647308, 5.502060570383854099, 5.000000000000000888 ) ) ;
#1098 = FACE_OUTER_BOUND ( 'NONE', #672, .T. ) ;
#1099 = EDGE_LOOP ( 'NONE', ( #664 ) ) ;
#1100 = EDGE_LOOP ( 'NONE', ( #268, #307, #200, #1242 ) ) ;
#1101 = ADVANCED_FACE ( 'NONE', ( #130, #539 ), #1254, .F. ) ;
#1102 = PLANE ( 'NONE',  #121 ) ;
#1103 = EDGE_LOOP ( 'NONE', ( #354 ) ) ;
#1104 = CARTESIAN_POINT ( 'NONE',  ( 66.37817526779139143, 28.76206057038385566, 5.000000000000000888 ) ) ;
#1105 = LINE ( 'NONE', #313, #776 ) ;
#1106 = EDGE_LOOP ( 'NONE', ( #402 ) ) ;
#1107 = CARTESIAN_POINT ( 'NONE',  ( 0.000000000000000000, 0.000000000000000000, 5.000000000000000000 ) ) ;
#1108 = AXIS2_PLACEMENT_3D ( 'NONE', #559, #261, #652 ) ;
#1109 = AXIS2_PLACEMENT_3D ( 'NONE', #1012, #836, #424 ) ;
#1110 = DIRECTION ( 'NONE',  ( 1.000000000000000000, 0.000000000000000000, 0.000000000000000000 ) ) ;
#1111 = CIRCLE ( 'NONE', #669, 1.550000000000000933 ) ;
#1112 = ADVANCED_FACE ( 'NONE', ( #536 ), #648, .T. ) ;
#1113 = CIRCLE ( 'NONE', #72, 3.750000000000000888 ) ;
#1114 = VERTEX_POINT ( 'NONE', #423 ) ;
#1115 = DIRECTION ( 'NONE',  ( 0.000000000000000000, 0.000000000000000000, 1.000000000000000000 ) ) ;
#1116 = EDGE_LOOP ( 'NONE', ( #1179, #1245, #431, #807 ) ) ;
#1117 = DIRECTION ( 'NONE',  ( 0.000000000000000000, 0.000000000000000000, 1.000000000000000000 ) ) ;
#1118 = DIRECTION ( 'NONE',  ( -0.000000000000000000, -0.000000000000000000, -1.000000000000000000 ) ) ;
#1119 = CARTESIAN_POINT ( 'NONE',  ( 67.59146149428433148, 5.502060570383854099, 17.00000000000000000 ) ) ;
#1120 = DIRECTION ( 'NONE',  ( 0.000000000000000000, 0.000000000000000000, -1.000000000000000000 ) ) ;
#1121 = ORIENTED_EDGE ( 'NONE', *, *, #362, .F. ) ;
#1122 = DIRECTION ( 'NONE',  ( -0.000000000000000000, 1.000000000000000000, -0.000000000000000000 ) ) ;
#1123 = DIRECTION ( 'NONE',  ( -6.938893903907229364E-16, 1.000000000000000000, -0.000000000000000000 ) ) ;
#1124 = VERTEX_POINT ( 'NONE', #751 ) ;
#1125 = VERTEX_POINT ( 'NONE', #717 ) ;
#1126 = DIRECTION ( 'NONE',  ( 1.000000000000000000, 0.000000000000000000, 0.000000000000000000 ) ) ;
#1127 = EDGE_CURVE ( 'NONE', #12, #12, #1003, .T. ) ;
#1128 = ORIENTED_EDGE ( 'NONE', *, *, #344, .T. ) ;
#1129 = CARTESIAN_POINT ( 'NONE',  ( 24.08472036240130620, 46.51409891124709617, 5.000000000000000000 ) ) ;
#1130 = CIRCLE ( 'NONE', #975, 2.600000000000000533 ) ;
#1131 = CIRCLE ( 'NONE', #842, 1.286713773507058844 ) ;
#1132 = DIRECTION ( 'NONE',  ( 1.000000000000000000, 0.000000000000000000, 0.000000000000000000 ) ) ;
#1133 = CIRCLE ( 'NONE', #397, 2.499999999999998668 ) ;
#1134 = ORIENTED_EDGE ( 'NONE', *, *, #1080, .T. ) ;
#1135 = EDGE_CURVE ( 'NONE', #131, #901, #937, .T. ) ;
#1136 = FACE_OUTER_BOUND ( 'NONE', #930, .T. ) ;
#1137 = ORIENTED_EDGE ( 'NONE', *, *, #91, .F. ) ;
#1138 = CARTESIAN_POINT ( 'NONE',  ( 60.00000000000000000, 102.5710538618021275, 0.000000000000000000 ) ) ;
#1139 = EDGE_LOOP ( 'NONE', ( #690, #464, #1212, #303 ) ) ;
#1140 = ORIENTED_EDGE ( 'NONE', *, *, #670, .T. ) ;
#1141 = CARTESIAN_POINT ( 'NONE',  ( 5.084720362404981486, 8.571053861803907381, 7.000000000000000000 ) ) ;
#1142 = DIRECTION ( 'NONE',  ( -0.000000000000000000, -0.000000000000000000, -1.000000000000000000 ) ) ;
#1143 = EDGE_CURVE ( 'NONE', #3, #3, #142, .T. ) ;
#1144 = CARTESIAN_POINT ( 'NONE',  ( 28.58472036240130265, 51.01409891124709617, 0.000000000000000000 ) ) ;
#1145 = DIRECTION ( 'NONE',  ( -0.000000000000000000, -0.000000000000000000, -1.000000000000000000 ) ) ;
#1146 = EDGE_LOOP ( 'NONE', ( #1013, #156, #692, #84 ) ) ;
#1147 = CARTESIAN_POINT ( 'NONE',  ( 24.08472036240130620, 46.51409891124709617, 12.00000000000000000 ) ) ;
#1148 = DIRECTION ( 'NONE',  ( 0.000000000000000000, 0.000000000000000000, -1.000000000000000000 ) ) ;
#1149 = ADVANCED_FACE ( 'NONE', ( #341, #655 ), #642, .T. ) ;
#1150 = VECTOR ( 'NONE', #369, 1000.000000000000000 ) ;
#1151 = ORIENTED_EDGE ( 'NONE', *, *, #194, .T. ) ;
#1152 = ORIENTED_EDGE ( 'NONE', *, *, #1264, .T. ) ;
#1153 = AXIS2_PLACEMENT_3D ( 'NONE', #1231, #326, #731 ) ;
#1154 = AXIS2_PLACEMENT_3D ( 'NONE', #1272, #777, #501 ) ;
#1155 = CARTESIAN_POINT ( 'NONE',  ( 65.09146149428433148, 5.502060570383854099, 17.00000000000000000 ) ) ;
#1156 = CARTESIAN_POINT ( 'NONE',  ( 0.000000000000000000, 0.000000000000000000, 5.000000000000000000 ) ) ;
#1157 = DIRECTION ( 'NONE',  ( 0.000000000000000000, 0.000000000000000000, -1.000000000000000000 ) ) ;
#1158 =( LENGTH_UNIT ( ) NAMED_UNIT ( * ) SI_UNIT ( .MILLI., .METRE. ) );
#1159 = EDGE_CURVE ( 'NONE', #413, #413, #1113, .T. ) ;
#1160 = ORIENTED_EDGE ( 'NONE', *, *, #119, .T. ) ;
#1161 = DIRECTION ( 'NONE',  ( -0.000000000000000000, -0.000000000000000000, -1.000000000000000000 ) ) ;
#1162 = CYLINDRICAL_SURFACE ( 'NONE', #903, 3.750000000000003553 ) ;
#1163 = FACE_OUTER_BOUND ( 'NONE', #322, .T. ) ;
#1164 = EDGE_LOOP ( 'NONE', ( #989, #452, #353, #935 ) ) ;
#1165 = ORIENTED_EDGE ( 'NONE', *, *, #805, .F. ) ;
#1166 = FACE_OUTER_BOUND ( 'NONE', #399, .T. ) ;
#1167 = EDGE_CURVE ( 'NONE', #729, #729, #1130, .T. ) ;
#1168 = ORIENTED_EDGE ( 'NONE', *, *, #214, .F. ) ;
#1169 = FACE_OUTER_BOUND ( 'NONE', #1116, .T. ) ;
#1170 = FACE_OUTER_BOUND ( 'NONE', #726, .T. ) ;
#1171 = ORIENTED_EDGE ( 'NONE', *, *, #119, .F. ) ;
#1172 = DIRECTION ( 'NONE',  ( -0.000000000000000000, -0.000000000000000000, 1.000000000000000000 ) ) ;
#1173 = AXIS2_PLACEMENT_3D ( 'NONE', #409, #221, #1126 ) ;
#1174 = VECTOR ( 'NONE', #1009, 1000.000000000000000 ) ;
#1175 = CYLINDRICAL_SURFACE ( 'NONE', #503, 2.499999999999998668 ) ;
#1176 = VECTOR ( 'NONE', #1148, 1000.000000000000000 ) ;
#1177 = CARTESIAN_POINT ( 'NONE',  ( 0.000000000000000000, 0.000000000000000000, 5.000000000000000000 ) ) ;
#1178 = DIRECTION ( 'NONE',  ( -1.000000000000000000, -0.000000000000000000, -0.000000000000000000 ) ) ;
#1179 = ORIENTED_EDGE ( 'NONE', *, *, #778, .T. ) ;
#1180 = EDGE_LOOP ( 'NONE', ( #732 ) ) ;
#1181 =( LENGTH_UNIT ( ) NAMED_UNIT ( * ) SI_UNIT ( .MILLI., .METRE. ) );
#1182 = ORIENTED_EDGE ( 'NONE', *, *, #1282, .T. ) ;
#1183 = DIRECTION ( 'NONE',  ( 0.000000000000000000, 0.000000000000000000, 1.000000000000000000 ) ) ;
#1184 = DIRECTION ( 'NONE',  ( -0.000000000000000000, -0.000000000000000000, -1.000000000000000000 ) ) ;
#1185 = ADVANCED_FACE ( 'NONE', ( #759 ), #451, .F. ) ;
#1186 = CARTESIAN_POINT ( 'NONE',  ( 5.084720362404981486, 48.57105386180391093, 5.000000000000000000 ) ) ;
#1187 = DIRECTION ( 'NONE',  ( -0.000000000000000000, -0.000000000000000000, 1.000000000000000000 ) ) ;
#1188 = EDGE_LOOP ( 'NONE', ( #79, #234, #765, #540 ) ) ;
#1189 = CARTESIAN_POINT ( 'NONE',  ( 65.09146149428434569, 28.76206057038385566, 5.000000000000000000 ) ) ;
#1190 = PLANE ( 'NONE',  #561 ) ;
#1191 = DIRECTION ( 'NONE',  ( -0.000000000000000000, -0.000000000000000000, -1.000000000000000000 ) ) ;
#1192 = ORIENTED_EDGE ( 'NONE', *, *, #551, .T. ) ;
#1193 = ADVANCED_FACE ( 'NONE', ( #18 ), #428, .F. ) ;
#1194 = DIRECTION ( 'NONE',  ( 1.000000000000000000, 0.000000000000000000, -0.000000000000000000 ) ) ;
#1195 = VECTOR ( 'NONE', #447, 1000.000000000000000 ) ;
#1196 = AXIS2_PLACEMENT_3D ( 'NONE', #1283, #891, #1088 ) ;
#1197 = CARTESIAN_POINT ( 'NONE',  ( 0.000000000000000000, 0.000000000000000000, 5.000000000000000000 ) ) ;
#1198 = AXIS2_PLACEMENT_3D ( 'NONE', #676, #376, #169 ) ;
#1199 = DIRECTION ( 'NONE',  ( -0.000000000000000000, 0.000000000000000000, 1.000000000000000000 ) ) ;
#1200 = AXIS2_PLACEMENT_3D ( 'NONE', #388, #796, #1194 ) ;
#1201 = EDGE_LOOP ( 'NONE', ( #375, #57, #20, #389 ) ) ;
#1202 = VERTEX_POINT ( 'NONE', #257 ) ;
#1203 = VERTEX_POINT ( 'NONE', #998 ) ;
#1204 = DIRECTION ( 'NONE',  ( -0.000000000000000000, -0.000000000000000000, 1.000000000000000000 ) ) ;
#1205 = EDGE_CURVE ( 'NONE', #865, #852, #56, .T. ) ;
#1206 = ORIENTED_EDGE ( 'NONE', *, *, #43, .F. ) ;
#1207 = LINE ( 'NONE', #485, #185 ) ;
#1208 = APPLICATION_PROTOCOL_DEFINITION ( 'draft international standard', 'automotive_design', 1998, #31 ) ;
#1209 = FACE_BOUND ( 'NONE', #844, .T. ) ;
#1210 = VERTEX_POINT ( 'NONE', #511 ) ;
#1211 = CARTESIAN_POINT ( 'NONE',  ( 28.58472036240130620, 86.01409891124708906, 0.000000000000000000 ) ) ;
#1212 = ORIENTED_EDGE ( 'NONE', *, *, #879, .F. ) ;
#1213 = ADVANCED_FACE ( 'NONE', ( #743 ), #644, .F. ) ;
#1214 = DIRECTION ( 'NONE',  ( 0.000000000000000000, 0.000000000000000000, -1.000000000000000000 ) ) ;
#1215 = EDGE_LOOP ( 'NONE', ( #944 ) ) ;
#1216 = CARTESIAN_POINT ( 'NONE',  ( 24.08472036240129910, 90.51409891124708906, 12.00000000000000000 ) ) ;
#1217 = CARTESIAN_POINT ( 'NONE',  ( 6.813676621836002312, 86.11189042415848860, 15.00000000000000355 ) ) ;
#1218 = DIRECTION ( 'NONE',  ( -1.000000000000000000, -0.000000000000000000, -0.000000000000000000 ) ) ;
#1219 = EDGE_LOOP ( 'NONE', ( #656, #521, #829, #41 ) ) ;
#1220 = CIRCLE ( 'NONE', #141, 2.599999999999999201 ) ;
#1221 = DIRECTION ( 'NONE',  ( -1.000000000000000000, -0.000000000000000000, -0.000000000000000000 ) ) ;
#1222 = AXIS2_PLACEMENT_3D ( 'NONE', #1066, #493, #798 ) ;
#1223 = AXIS2_PLACEMENT_3D ( 'NONE', #892, #381, #47 ) ;
#1224 = CARTESIAN_POINT ( 'NONE',  ( 8.834720362404981486, 8.571053861803907381, 5.000000000000000000 ) ) ;
#1225 = FACE_OUTER_BOUND ( 'NONE', #497, .T. ) ;
#1226 = EDGE_LOOP ( 'NONE', ( #593 ) ) ;
#1227 = CARTESIAN_POINT ( 'NONE',  ( 68.08472036240131331, 90.51409891124708906, 12.00000000000000000 ) ) ;
#1228 = CYLINDRICAL_SURFACE ( 'NONE', #978, 2.500000000000000888 ) ;
#1229 = CARTESIAN_POINT ( 'NONE',  ( 19.70731632715647308, 5.502060570383854099, 17.00000000000000000 ) ) ;
#1230 = ADVANCED_FACE ( 'NONE', ( #945 ), #490, .T. ) ;
#1231 = CARTESIAN_POINT ( 'NONE',  ( 18.18146149428434555, 28.76206057038385566, 5.000000000000000000 ) ) ;
#1232 = EDGE_LOOP ( 'NONE', ( #484 ) ) ;
#1233 = LINE ( 'NONE', #640, #822 ) ;
#1234 = DIRECTION ( 'NONE',  ( -1.000000000000000000, 0.000000000000000000, 0.000000000000000000 ) ) ;
#1235 = EDGE_CURVE ( 'NONE', #543, #865, #767, .T. ) ;
#1236 = VERTEX_POINT ( 'NONE', #575 ) ;
#1237 = PLANE ( 'NONE',  #1277 ) ;
#1238 = CIRCLE ( 'NONE', #1108, 2.500000000000000444 ) ;
#1239 = ORIENTED_EDGE ( 'NONE', *, *, #1063, .F. ) ;
#1240 = VECTOR ( 'NONE', #1178, 1000.000000000000000 ) ;
#1241 = DIRECTION ( 'NONE',  ( -0.000000000000000000, -0.000000000000000000, -1.000000000000000000 ) ) ;
#1242 = ORIENTED_EDGE ( 'NONE', *, *, #661, .T. ) ;
#1243 = AXIS2_PLACEMENT_3D ( 'NONE', #1040, #949, #125 ) ;
#1244 = DIRECTION ( 'NONE',  ( -3.965082230804131699E-16, -1.000000000000000000, -0.000000000000000000 ) ) ;
#1245 = ORIENTED_EDGE ( 'NONE', *, *, #1091, .F. ) ;
#1246 = EDGE_CURVE ( 'NONE', #909, #849, #955, .T. ) ;
#1247 = FACE_BOUND ( 'NONE', #639, .T. ) ;
#1248 = EDGE_LOOP ( 'NONE', ( #228 ) ) ;
#1249 = DIRECTION ( 'NONE',  ( 1.000000000000000000, 0.000000000000000000, 0.000000000000000000 ) ) ;
#1250 = ORIENTED_EDGE ( 'NONE', *, *, #649, .T. ) ;
#1251 = DIRECTION ( 'NONE',  ( 1.000000000000000000, 0.000000000000000000, 0.000000000000000000 ) ) ;
#1252 = EDGE_CURVE ( 'NONE', #1236, #837, #468, .T. ) ;
#1253 = DIRECTION ( 'NONE',  ( 0.000000000000000000, 0.000000000000000000, -1.000000000000000000 ) ) ;
#1254 = CYLINDRICAL_SURFACE ( 'NONE', #99, 1.600000000000001199 ) ;
#1255 = DIRECTION ( 'NONE',  ( 0.000000000000000000, 1.000000000000000000, -0.000000000000000000 ) ) ;
#1256 = CARTESIAN_POINT ( 'NONE',  ( 5.084720362404981486, 48.57105386180391093, 4.500000000000000000 ) ) ;
#1257 = VECTOR ( 'NONE', #1191, 1000.000000000000000 ) ;
#1258 = ADVANCED_FACE ( 'NONE', ( #1090, #1166 ), #159, .F. ) ;
#1259 = AXIS2_PLACEMENT_3D ( 'NONE', #1273, #75, #695 ) ;
#1260 = VECTOR ( 'NONE', #727, 1000.000000000000000 ) ;
#1261 = CARTESIAN_POINT ( 'NONE',  ( 63.58472036240128489, 51.01409891124709617, 2.000000000000000000 ) ) ;
#1262 = ORIENTED_EDGE ( 'NONE', *, *, #724, .T. ) ;
#1263 = ORIENTED_EDGE ( 'NONE', *, *, #357, .F. ) ;
#1264 = EDGE_CURVE ( 'NONE', #320, #320, #527, .T. ) ;
#1265 = VERTEX_POINT ( 'NONE', #77 ) ;
#1266 = FACE_OUTER_BOUND ( 'NONE', #598, .T. ) ;
#1267 = CARTESIAN_POINT ( 'NONE',  ( 5.213676621836000002, 66.11189042415847439, 15.00000000000000355 ) ) ;
#1268 = ORIENTED_EDGE ( 'NONE', *, *, #1246, .F. ) ;
#1269 = CARTESIAN_POINT ( 'NONE',  ( 6.634720362404985750, 48.57105386180391093, 7.000000000000000000 ) ) ;
#1270 = FACE_OUTER_BOUND ( 'NONE', #525, .T. ) ;
#1271 = EDGE_CURVE ( 'NONE', #766, #766, #982, .T. ) ;
#1272 = CARTESIAN_POINT ( 'NONE',  ( 75.08472036240129910, 7.347880794884118356E-15, 0.000000000000000000 ) ) ;
#1273 = CARTESIAN_POINT ( 'NONE',  ( 5.213676621836000002, 86.11189042415848860, 15.00000000000000355 ) ) ;
#1274 = DIRECTION ( 'NONE',  ( -0.000000000000000000, -0.000000000000000000, -1.000000000000000000 ) ) ;
#1275 = VECTOR ( 'NONE', #453, 1000.000000000000000 ) ;
#1276 = VERTEX_POINT ( 'NONE', #372 ) ;
#1277 = AXIS2_PLACEMENT_3D ( 'NONE', #628, #816, #10 ) ;
#1278 = AXIS2_PLACEMENT_3D ( 'NONE', #446, #839, #741 ) ;
#1279 = SURFACE_STYLE_FILL_AREA ( #284 ) ;
#1280 = AXIS2_PLACEMENT_3D ( 'NONE', #1189, #874, #585 ) ;
#1281 = DIRECTION ( 'NONE',  ( -0.000000000000000000, 0.000000000000000000, 1.000000000000000000 ) ) ;
#1282 = EDGE_CURVE ( 'NONE', #89, #89, #800, .T. ) ;
#1283 = CARTESIAN_POINT ( 'NONE',  ( 5.213676621836000002, 66.11189042415847439, 5.000000000000000888 ) ) ;
#1284 = EDGE_LOOP ( 'NONE', ( #889 ) ) ;
#1285 = DIRECTION ( 'NONE',  ( 0.000000000000000000, 0.000000000000000000, -1.000000000000000000 ) ) ;
#1286 = VERTEX_POINT ( 'NONE', #270 ) ;
#1287 = DIRECTION ( 'NONE',  ( 0.000000000000000000, -1.000000000000000000, 0.000000000000000000 ) ) ;
#1288 = ADVANCED_FACE ( 'NONE', ( #666, #1291 ), #174, .T. ) ;
#1289 = FACE_OUTER_BOUND ( 'NONE', #45, .T. ) ;
#1290 = LINE ( 'NONE', #565, #205 ) ;
#1291 = FACE_BOUND ( 'NONE', #783, .T. ) ;
#1292 = FACE_OUTER_BOUND ( 'NONE', #114, .T. ) ;
#1293 = ORIENTED_EDGE ( 'NONE', *, *, #59, .F. ) ;
#1294 = CARTESIAN_POINT ( 'NONE',  ( 24.08472036240129910, 90.51409891124708906, 12.00000000000000000 ) ) ;
#1295 = DIRECTION ( 'NONE',  ( 1.000000000000000000, 0.000000000000000000, -0.000000000000000000 ) ) ;
#1296 = ORIENTED_EDGE ( 'NONE', *, *, #1042, .T. ) ;
#1297 = VERTEX_POINT ( 'NONE', #1229 ) ;
#1298 = ADVANCED_FACE ( 'NONE', ( #290, #260 ), #963, .T. ) ;
#1299 = DIRECTION ( 'NONE',  ( -1.000000000000000000, 0.000000000000000000, -0.000000000000000000 ) ) ;
#1300 =( GEOMETRIC_REPRESENTATION_CONTEXT ( 3 ) GLOBAL_UNCERTAINTY_ASSIGNED_CONTEXT ( ( #556 ) ) GLOBAL_UNIT_ASSIGNED_CONTEXT ( ( #1181, #168, #508 ) ) REPRESENTATION_CONTEXT ( 'NONE', 'WORKASPACE' ) );
#1301 = ORIENTED_EDGE ( 'NONE', *, *, #977, .F. ) ;
#1302 = CIRCLE ( 'NONE', #1196, 1.600000000000000755 ) ;
#1303 = CARTESIAN_POINT ( 'NONE',  ( 18.18146149428434555, 5.502060570383854099, 17.00000000000000000 ) ) ;
#1304 = CIRCLE ( 'NONE', #1198, 2.499999999999998668 ) ;
#1305 = PLANE ( 'NONE',  #1259 ) ;
#1306 = EDGE_LOOP ( 'NONE', ( #856 ) ) ;
#1307 = CARTESIAN_POINT ( 'NONE',  ( 20.68146149428434555, 5.502060570383854099, 17.00000000000000000 ) ) ;
#1308 = DIRECTION ( 'NONE',  ( -1.000000000000000000, 0.000000000000000000, 0.000000000000000000 ) ) ;
#1309 = EDGE_LOOP ( 'NONE', ( #550 ) ) ;
#1310 = CYLINDRICAL_SURFACE ( 'NONE', #28, 2.500000000000002220 ) ;
#1311 = LINE ( 'NONE', #1216, #1060 ) ;
#1312 = CARTESIAN_POINT ( 'NONE',  ( 8.834720362404981486, 8.571053861803907381, 7.000000000000000000 ) ) ;
#1313 = DIRECTION ( 'NONE',  ( -0.000000000000000000, -0.000000000000000000, -1.000000000000000000 ) ) ;
#1314 = EDGE_LOOP ( 'NONE', ( #616 ) ) ;
#1315 = ADVANCED_FACE ( 'NONE', ( #1270, #361 ), #66, .T. ) ;
ENDSEC;
END-ISO-10303-21;
